<svg xmlns="http://www.w3.org/2000/svg" xmlns:xlink="http://www.w3.org/1999/xlink" version="1.1"><metadata>Created by FontForge 20200306 at Wed Nov 23 14:02:50 2011 By convertio Copyright (c) 2011 Amorepacific Corp. All rights reserved.</metadata><defs><font id="AritaSans-Medium" horiz-adv-x="512"><font-face x-height="502" ascent="750" bbox="-207 -257 1101 911" cap-height="700" descent="-250" font-family="Arita Sans Medium" font-stretch="normal" font-weight="500" panose-1="2 11 6 3 4 0 0 0 0 3" stemh="56" stemv="65" underline-position="-100" underline-thickness="50" unicode-range="U+0020-FB02" units-per-em="1000"/><glyph d="M114 0c-15 0 -21 6 -21 26v424h-54v52h54v107c0 93 56 145 129 145c28 0 46 -4 60 -12c10 -6 12 -17 10 -31l-4 -24c-23 8 -41 12 -65 12c-39 0 -65 -25 -65 -81v-116h259c16 0 22 -6 22 -26v-476h-45c-14 0 -20 6 -20 26v424h-216v-450h-44zM405 645 c-23 0 -43 19 -43 43s20 44 43 44c25 0 45 -20 45 -44s-20 -43 -45 -43z" glyph-name="fi" horiz-adv-x="528" unicode="fi"/><glyph d="M114 0c-15 0 -21 6 -21 26v424h-54v52h54v99c0 101 58 153 182 153c44 0 69 -1 100 -4h42c16 0 22 -7 22 -28v-722h-45c-14 0 -20 6 -20 26v672c-37 3 -63 4 -99 4c-85 0 -117 -32 -117 -92v-108h113v-24c0 -19 -8 -28 -30 -28h-83v-450h-44z" glyph-name="fl" horiz-adv-x="528" unicode="fl"/><glyph d="M50 -210v920h100v-920h-100z" glyph-name=".notdef" horiz-adv-x="200"/><glyph d="M292 -6c-65 0 -129 3 -184 8v325h-62v49h62v321c69 5 130 8 194 8c198 0 309 -114 309 -333c0 -256 -134 -378 -319 -378zM292 49c151 0 248 95 248 317c0 195 -96 283 -244 283c-40 0 -82 -2 -120 -5v-268h119v-27c0 -17 -5 -22 -21 -22h-98v-272c42 -4 76 -6 116 -6z" glyph-name="Eth" horiz-adv-x="657" unicode="Ð"/><glyph d="M222 -8c-96 0 -174 74 -174 244c0 176 101 273 222 273c38 0 65 -7 89 -24l2 2c-8 55 -23 99 -41 133l-69 -40l-20 39l65 37c-26 30 -60 46 -98 46c-27 0 -50 -3 -73 -11l-10 22c-4 9 3 22 18 30c15 9 37 12 69 12c57 0 108 -20 148 -68l67 38l14 -25c4 -8 2 -16 -6 -21 l-50 -29c38 -68 60 -170 60 -321c0 -241 -90 -337 -213 -337zM233 47c82 0 135 75 135 275c0 39 -1 67 -7 108c-24 18 -56 27 -95 27c-79 0 -151 -76 -151 -213c0 -144 57 -197 118 -197z" glyph-name="eth" horiz-adv-x="491" unicode="ð"/><glyph d="M108 0v298l-65 -24v56l65 24v346h47c14 0 21 -7 21 -31v-289l89 33v-38c0 -14 -6 -19 -19 -25l-70 -26v-266h282v-35c0 -17 -10 -23 -29 -23h-321z" glyph-name="Lslash" horiz-adv-x="474" unicode="Ł"/><glyph d="M110 0c-15 0 -21 6 -21 26v312l-44 -16v53l44 16v359h44c16 0 21 -7 21 -26v-309l45 17v-38c0 -10 -4 -15 -15 -20l-30 -11v-363h-44z" glyph-name="lslash" horiz-adv-x="243" unicode="ł"/><glyph d="M199 -8c-64 0 -116 11 -143 23c-18 8 -23 16 -21 28l5 36c56 -21 107 -30 163 -30c86 0 154 55 155 124c0 58 -28 95 -104 133l-89 44c-81 40 -120 95 -120 174c0 103 85 185 205 185c53 0 80 -4 112 -14c19 -6 24 -17 22 -29l-6 -33c-44 13 -80 19 -130 19 c-80 0 -138 -52 -138 -116c0 -56 28 -93 96 -126l87 -43c94 -46 129 -96 129 -177c0 -114 -95 -198 -223 -198zM194 751l-100 145h43c15 0 21 -3 31 -18l60 -85h6l59 89c7 10 13 14 25 14h47l-96 -132c-7 -9 -15 -13 -25 -13h-50z" glyph-name="Scaron" horiz-adv-x="461" unicode="Š"/><glyph d="M157 -7c-52 0 -90 8 -110 20c-13 8 -19 17 -18 29l4 29c39 -15 85 -25 126 -25c66 0 114 36 114 84c0 38 -19 65 -77 87l-58 22c-63 24 -101 68 -101 132c0 77 67 138 165 138c44 0 74 -5 93 -14c13 -6 18 -13 16 -27l-5 -29c-33 11 -66 17 -105 17 c-62 0 -101 -37 -101 -77c0 -39 22 -64 72 -83l60 -22c72 -27 104 -71 104 -131c0 -85 -77 -150 -179 -150zM148 551l-100 145h43c15 0 21 -3 31 -18l60 -85h6l59 89c7 10 13 14 25 14h47l-96 -132c-7 -9 -15 -13 -25 -13h-50z" glyph-name="scaron" horiz-adv-x="369" unicode="š"/><glyph d="M249 0c-14 0 -21 7 -21 31v223l-208 446h53c20 0 27 -5 38 -29l154 -332h2l153 334c9 20 19 27 34 27h49l-207 -439v-261h-47zM253 751l102 145h70l-97 -128c-10 -14 -18 -17 -34 -17h-41z" glyph-name="Yacute" horiz-adv-x="524" unicode="Ý"/><glyph d="M62 -257c-13 0 -28 2 -41 7c-16 7 -24 17 -21 31l6 25c17 -9 38 -13 57 -13c32 0 62 26 87 105l32 108l-169 496h45c21 0 28 -6 34 -26l125 -380h2l115 406h42c15 0 21 -10 16 -25l-185 -580c-37 -117 -88 -154 -145 -154zM159 551l102 145h70l-97 -128 c-10 -14 -18 -17 -34 -17h-41z" glyph-name="yacute" horiz-adv-x="405" unicode="ý"/><glyph d="M129 0c-14 0 -21 7 -21 31v669h47c14 0 21 -7 21 -31v-112c34 2 60 3 93 3c137 0 208 -75 208 -191c0 -138 -91 -221 -220 -221c-34 0 -58 1 -81 3v-151h-47zM256 204c88 0 150 60 150 159c0 93 -54 141 -144 141c-29 0 -57 -1 -86 -3v-294c28 -2 52 -3 80 -3z" glyph-name="Thorn" horiz-adv-x="524" unicode="Þ"/><glyph d="M111 -250c-15 0 -22 6 -22 27v973h44c16 0 21 -7 21 -26v-284h3c44 47 87 69 140 69c92 0 164 -67 164 -245c0 -171 -100 -272 -221 -272c-37 0 -64 3 -86 10v-252h-43zM240 43c81 0 154 66 154 213s-52 194 -111 194c-42 0 -88 -28 -129 -80v-314c28 -9 53 -13 86 -13z" glyph-name="thorn" horiz-adv-x="508" unicode="þ"/><glyph d="M33 0v35c0 15 5 29 15 46l332 561h-306c-18 0 -27 9 -27 24v34h406v-35c0 -16 -6 -31 -18 -51l-328 -556h357v-33c0 -17 -9 -25 -28 -25h-403zM212 751l-100 145h43c15 0 21 -3 31 -18l60 -85h6l59 89c7 10 13 14 25 14h47l-96 -132c-7 -9 -15 -13 -25 -13h-50z" glyph-name="Zcaron" horiz-adv-x="497" unicode="Ž"/><glyph d="M23 0v27c0 13 3 26 10 38l234 381h-212c-16 0 -24 7 -24 21v35h309v-26c0 -14 -4 -28 -11 -41l-233 -379h254v-36c0 -13 -5 -20 -19 -20h-308zM149 551l-100 145h43c15 0 21 -3 31 -18l60 -85h6l59 89c7 10 13 14 25 14h47l-96 -132c-7 -9 -15 -13 -25 -13h-50z" glyph-name="zcaron" horiz-adv-x="373" unicode="ž"/><glyph d="M487 -131v39c0 65 27 116 87 155l47 30c41 27 58 54 58 89c0 38 -31 66 -78 66c-31 0 -65 -8 -97 -27l-7 21c-2 9 -1 18 7 25c23 18 60 29 104 29c80 0 128 -46 128 -107c0 -53 -28 -97 -82 -131l-51 -32c-41 -25 -65 -63 -65 -102v-8h208v-27c0 -14 -6 -20 -21 -20h-238 zM173 280c-12 0 -18 7 -18 25v337l-2 1l-60 -33c-7 -4 -15 -7 -23 -7c-6 0 -12 3 -17 12l-10 22l115 63h54v-420h-39zM136 -173l-43 26l492 852l43 -26z" glyph-name="onehalf" horiz-adv-x="820" unicode="½"/><glyph d="M641 -130c-11 0 -17 7 -17 25v65h-187v42c25 111 96 216 188 288h54v-285h44v-31c0 -9 -3 -14 -12 -14h-32v-90h-38zM173 280c-12 0 -18 7 -18 25v337l-2 1l-60 -33c-7 -4 -15 -7 -23 -7c-6 0 -12 3 -17 12l-10 22l115 63h54v-420h-39zM136 -173l-43 26l492 852l43 -26z M486 5h138v221l-2 2c-69 -61 -115 -136 -136 -223z" glyph-name="onequarter" horiz-adv-x="820" unicode="¼"/><glyph d="M173 280c-12 0 -18 7 -18 25v337l-2 1l-60 -33c-7 -4 -15 -7 -23 -7c-6 0 -12 3 -17 12l-10 22l115 63h54v-420h-39z" glyph-name="onesuperior" horiz-adv-x="345" unicode="¹"/><glyph d="M134 273c-36 0 -62 6 -78 16c-9 7 -12 13 -11 22l3 21c32 -10 56 -15 88 -15c50 0 90 31 90 79c0 41 -32 70 -85 70h-51c-12 0 -18 5 -18 16v28h58c46 0 86 33 85 85c-1 40 -30 66 -73 66c-30 0 -55 -8 -83 -25l-7 19c-3 9 2 21 17 31c20 14 44 21 82 21 c76 0 121 -45 121 -106c0 -50 -26 -84 -67 -101v-2c49 -8 78 -47 78 -96c0 -76 -63 -129 -149 -129zM641 -130c-11 0 -17 7 -17 25v65h-187v42c25 111 96 216 188 288h54v-285h44v-31c0 -9 -3 -14 -12 -14h-32v-90h-38zM484 5h140v223l-2 2c-69 -60 -118 -139 -138 -225z M136 -173l-43 26l492 852l43 -26z" glyph-name="threequarters" horiz-adv-x="820" unicode="¾"/><glyph d="M134 273c-36 0 -62 6 -78 16c-9 7 -12 13 -11 22l3 21c32 -10 56 -15 88 -15c50 0 90 31 90 79c0 41 -32 70 -85 70h-51c-12 0 -18 5 -18 16v28h58c46 0 86 33 85 85c-1 40 -30 66 -73 66c-30 0 -55 -8 -83 -25l-7 19c-3 9 2 21 17 31c20 14 44 21 82 21 c76 0 121 -45 121 -106c0 -50 -26 -84 -67 -101v-2c49 -8 78 -47 78 -96c0 -76 -63 -129 -149 -129z" glyph-name="threesuperior" horiz-adv-x="345" unicode="³"/><glyph d="M43 280v39c0 65 27 116 87 155l47 30c41 27 58 54 58 89c0 38 -31 66 -78 66c-31 0 -65 -8 -97 -27l-7 21c-2 9 -1 18 7 25c23 18 60 29 104 29c80 0 128 -46 128 -107c0 -53 -28 -97 -82 -131l-51 -32c-41 -25 -65 -63 -65 -102v-8h208v-27c0 -14 -6 -20 -21 -20h-238z" glyph-name="twosuperior" horiz-adv-x="345" unicode="²"/><glyph d="M78 -205v299h57v-299h-57zM78 401v299h57v-299h-57z" glyph-name="brokenbar" horiz-adv-x="213" unicode="¦"/><glyph d="M59 273v59h394v-59h-394z" glyph-name="minus" unicode="−"/><glyph d="M390 131l-135 134l-134 -133l-38 37l134 134l-134 135l38 39l134 -135l136 135l38 -39l-135 -135l135 -134z" glyph-name="multiply" unicode="×"/><glyph glyph-name="space" horiz-adv-x="200"/><glyph d="M144 -5c-24 0 -45 19 -45 44s21 44 45 44c25 0 46 -19 46 -44s-21 -44 -46 -44zM140 176c-17 0 -25 9 -25 33v119l-3 372h39c20 0 27 -8 26 -33l-3 -339v-152h-34z" glyph-name="exclam" horiz-adv-x="289" unicode="!"/><glyph d="M63 485l-8 215h66l-7 -215h-51zM200 485l-8 215h66l-7 -215h-51z" glyph-name="quotedbl" horiz-adv-x="313" unicode="&quot;"/><glyph d="M140 0l26 204h-140l5 47h140l25 198h-140l6 47h140l25 204h50l-25 -204h175l26 204h50l-26 -204h140l-5 -47h-141l-25 -198h141l-6 -47h-141l-24 -204h-50l25 204h-176l-25 -204h-50zM246 449l-25 -198h175l25 198h-175z" glyph-name="numbersign" horiz-adv-x="643" unicode="#"/><glyph d="M222 -108v100c-58 2 -104 12 -129 23c-18 8 -23 17 -21 28l5 36c50 -19 97 -29 146 -31v293l-21 10c-80 41 -120 93 -120 173c0 96 75 174 183 184v106h45v-105c38 -1 62 -6 88 -14c20 -6 25 -17 23 -29l-6 -33c-38 11 -68 17 -106 19v-276l21 -10 c91 -43 129 -95 129 -176c0 -104 -81 -183 -191 -196v-102h-46zM243 408l23 -11v256c-70 -8 -120 -57 -120 -117c0 -57 29 -95 97 -128zM266 320v-271c73 10 129 62 130 124c0 58 -30 97 -105 135z" glyph-name="dollar" horiz-adv-x="532" unicode="$"/><glyph d="M182 354c-86 0 -131 53 -131 170c0 120 54 182 143 182c81 0 131 -55 131 -167c0 -122 -57 -185 -143 -185zM187 399c47 0 81 32 81 136c0 103 -32 126 -79 126c-46 0 -81 -33 -81 -134c0 -105 33 -128 79 -128zM618 -7c-86 0 -131 53 -131 170c0 120 54 182 143 182 c81 0 131 -55 131 -167c0 -122 -57 -185 -143 -185zM623 38c47 0 81 32 81 136c0 103 -32 126 -78 126c-47 0 -82 -33 -82 -134c0 -105 33 -128 79 -128zM266 -12l-46 23l327 698l47 -23z" glyph-name="percent" horiz-adv-x="812" unicode="%"/><glyph d="M255 -8c-130 0 -214 75 -214 175c0 79 49 142 141 181v2l-32 34c-49 51 -69 95 -69 150c0 103 81 175 178 175c92 0 164 -71 164 -159c0 -84 -60 -163 -141 -204v-2l173 -172h2c22 46 39 109 44 179l35 5c16 2 24 -8 24 -27c0 -56 -23 -135 -61 -196l109 -104l-17 -21 c-6 -6 -13 -11 -24 -11c-14 0 -26 4 -49 27l-57 57c-49 -54 -124 -89 -206 -89zM261 47c64 0 119 27 159 70v2l-200 195c-69 -32 -108 -83 -108 -140c0 -73 70 -127 149 -127zM205 418l40 -41c69 37 111 98 111 167c0 65 -46 109 -102 109c-60 0 -106 -49 -106 -112 c0 -46 19 -84 57 -123z" glyph-name="ampersand" horiz-adv-x="625" unicode="&amp;"/><glyph d="M63 485l-8 215h66l-7 -215h-51z" glyph-name="quotesingle" horiz-adv-x="176" unicode="'"/><glyph d="M193 -200c-76 62 -155 238 -155 447c0 211 82 391 158 453h61c-87 -83 -159 -233 -159 -447c0 -206 72 -370 159 -453h-64z" glyph-name="parenleft" horiz-adv-x="268" unicode="("/><glyph d="M10 -200c87 83 159 233 159 447c0 206 -72 370 -159 453h64c76 -62 155 -238 155 -447c0 -211 -82 -391 -158 -453h-61z" glyph-name="parenright" horiz-adv-x="268" unicode=")"/><glyph d="M170 305l-31 22c-13 9 -13 17 -3 29l66 80l29 41l-47 16l-121 33l11 36c5 15 11 17 27 11l98 -38l46 -15v49l-6 127h38c15 0 19 -5 18 -22l-5 -105v-49l47 15l118 45l12 -35c5 -16 1 -21 -16 -25l-102 -27l-46 -16l31 -39l78 -98l-31 -23c-12 -9 -19 -7 -28 8l-57 88 l-28 38l-31 -41z" glyph-name="asterisk" horiz-adv-x="532" unicode="*"/><glyph d="M227 107v169h-168v58h168v168h58v-168h168v-58h-168v-169h-58z" glyph-name="plus" unicode="+"/><glyph d="M171 27c0 -48 -41 -109 -84 -145c-15 -12 -28 -10 -38 2l-14 14c35 29 64 67 73 103c-16 5 -28 21 -28 40c0 24 20 43 44 43c29 0 47 -22 47 -57z" glyph-name="comma" horiz-adv-x="250" unicode=","/><glyph d="M59 270v60h249v-60h-249z" glyph-name="hyphen" horiz-adv-x="367" unicode="-"/><glyph d="M125 -5c-25 0 -46 20 -46 45s21 44 46 44s45 -19 45 -44s-20 -45 -45 -45z" glyph-name="period" horiz-adv-x="250" unicode="."/><glyph d="M33 -187l-53 21l318 876l53 -21z" glyph-name="slash" horiz-adv-x="331" unicode="/"/><glyph d="M257 -9c-136 0 -214 103 -214 346s88 371 231 371c134 0 215 -105 215 -344c0 -244 -91 -373 -232 -373zM261 49c91 0 158 80 158 308c0 230 -63 294 -149 294c-89 0 -157 -86 -157 -308c0 -232 64 -294 148 -294z" glyph-name="zero" horiz-adv-x="532" unicode="0"/><glyph d="M277 0c-14 0 -21 7 -21 31v594l-2 2l-114 -60c-14 -8 -25 -13 -36 -13c-9 0 -16 4 -22 15l-12 28l190 103h64v-700h-47z" glyph-name="one" horiz-adv-x="532" unicode="1"/><glyph d="M57 0v54c0 105 54 201 144 263l74 51c74 51 107 105 107 164c0 68 -57 118 -134 118c-59 0 -110 -13 -163 -44l-7 26c-4 16 3 33 25 44c40 21 88 33 153 33c121 0 196 -72 196 -170c0 -81 -44 -149 -136 -212l-80 -55c-72 -49 -115 -127 -115 -204v-11h342v-30 c0 -20 -6 -27 -27 -27h-379z" glyph-name="two" horiz-adv-x="532" unicode="2"/><glyph d="M209 -8c-59 0 -104 10 -127 24c-15 9 -20 17 -18 30l5 29c54 -20 91 -28 143 -28c92 0 162 61 162 145c0 78 -54 132 -152 132h-85c-17 0 -22 7 -22 21v33h92c79 0 149 56 149 151c-1 77 -54 122 -127 122c-54 0 -93 -12 -142 -40l-6 26c-3 12 2 28 21 40 c30 20 78 32 139 32c111 0 185 -72 185 -173c0 -83 -46 -144 -110 -170v-2c79 -17 128 -81 128 -164c0 -119 -100 -208 -235 -208z" glyph-name="three" horiz-adv-x="532" unicode="3"/><glyph d="M367 0c-14 0 -21 7 -21 31v133h-302v51c35 190 138 357 303 485h65v-481h79v-37c0 -13 -6 -18 -19 -18h-60v-164h-45zM104 219h242v405l-3 1c-131 -109 -213 -253 -239 -406z" glyph-name="four" horiz-adv-x="532" unicode="4"/><glyph d="M217 -8c-67 0 -110 9 -134 25c-10 7 -14 15 -12 26l5 32c56 -20 93 -26 145 -26c93 0 169 69 169 175c0 105 -60 165 -135 165c-46 0 -87 -13 -121 -35l-36 19v327h330v-30c0 -20 -5 -27 -26 -27h-249v-227c34 19 70 29 121 29c110 0 190 -80 190 -209 c0 -141 -116 -244 -247 -244z" glyph-name="five" horiz-adv-x="532" unicode="5"/><glyph d="M278 -8c-114 0 -222 90 -222 287c0 282 148 430 305 430c50 0 77 -5 100 -15c16 -7 21 -16 18 -28l-8 -29c-39 13 -71 18 -112 18c-101 0 -203 -99 -223 -253l1 -3c40 26 94 43 150 43c118 0 202 -85 202 -219c0 -136 -100 -231 -211 -231zM283 50c70 0 135 58 135 163 s-65 169 -153 169c-49 0 -104 -17 -135 -36c-3 -21 -3 -50 -3 -71c0 -155 76 -225 156 -225z" glyph-name="six" horiz-adv-x="532" unicode="6"/><glyph d="M198 0c-12 0 -19 6 -24 21c-4 15 -8 42 -8 81c0 179 75 342 241 535l-2 5h-300c-22 0 -28 7 -28 24v34h403v-52c-178 -203 -252 -373 -252 -541c0 -37 3 -78 8 -107h-38z" glyph-name="seven" horiz-adv-x="532" unicode="7"/><glyph d="M258 -9c-124 0 -207 69 -207 180c0 84 51 156 121 191v3c-50 23 -92 75 -92 156c0 105 87 187 190 187c108 0 184 -77 184 -178c0 -74 -41 -140 -88 -170v-2c70 -30 115 -91 115 -168c0 -113 -91 -199 -223 -199zM256 396l63 -19c39 32 69 88 69 145 c0 77 -51 129 -123 129c-66 0 -119 -54 -119 -123c0 -68 42 -112 110 -132zM263 49c88 0 147 55 147 131c0 69 -39 115 -119 139l-73 23c-61 -36 -100 -96 -100 -164c0 -82 59 -129 145 -129z" glyph-name="eight" horiz-adv-x="532" unicode="8"/><glyph d="M173 -9c-52 0 -90 6 -112 16c-16 7 -22 16 -18 27l8 25c39 -12 78 -18 124 -18c103 0 204 88 222 260l-1 2c-40 -24 -91 -38 -147 -38c-116 0 -202 82 -202 214c0 128 98 229 211 229c115 0 219 -95 219 -288c0 -289 -141 -429 -304 -429zM269 319c49 0 104 17 135 37 c3 21 3 47 3 68c0 154 -74 227 -153 227c-71 0 -136 -66 -136 -163c0 -105 64 -169 151 -169z" glyph-name="nine" horiz-adv-x="532" unicode="9"/><glyph d="M125 -5c-25 0 -46 20 -46 45s21 44 46 44s45 -19 45 -44s-20 -45 -45 -45zM125 420c-25 0 -46 20 -46 45s21 44 46 44s45 -19 45 -44s-20 -45 -45 -45z" glyph-name="colon" horiz-adv-x="250" unicode=":"/><glyph d="M171 27c0 -48 -41 -109 -84 -145c-15 -12 -28 -10 -38 2l-14 14c35 29 64 67 73 103c-16 5 -28 21 -28 40c0 24 20 43 44 43c29 0 47 -22 47 -57zM125 420c-25 0 -46 20 -46 45s21 44 46 44s45 -19 45 -44s-20 -45 -45 -45z" glyph-name="semicolon" horiz-adv-x="250" unicode=";"/><glyph d="M406 88l-328 194v34l327 192l27 -50l-269 -158v-1l269 -159z" glyph-name="less" unicode="&lt;"/><glyph d="M59 186v58h394v-58h-394zM59 366v58h394v-58h-394z" glyph-name="equal" unicode="="/><glyph d="M107 89l-27 50l269 158v1l-269 160l26 51l328 -193v-34z" glyph-name="greater" unicode="&gt;"/><glyph d="M356 546c0 -78 -37 -132 -106 -170l-39 -23c-44 -26 -60 -45 -60 -78c0 -32 24 -69 47 -89l-36 -10c-5 -1 -14 1 -22 6c-27 18 -49 52 -49 97c0 48 25 83 78 114l43 25c49 29 75 70 74 118c0 70 -51 114 -126 114c-41 0 -83 -10 -118 -26l-9 27c-3 10 2 23 21 34 c24 13 68 24 118 24c105 0 184 -67 184 -163zM144 -5c-24 0 -45 19 -45 44s21 44 45 44c25 0 46 -19 46 -44s-21 -44 -46 -44z" glyph-name="question" horiz-adv-x="400" unicode="?"/><glyph d="M437 -189c-197 0 -377 143 -377 407c0 288 197 492 420 492c194 0 354 -148 354 -364c0 -206 -121 -323 -223 -323c-54 0 -95 40 -94 109h-4c-31 -51 -97 -92 -153 -92c-54 0 -102 48 -102 151c0 204 108 316 237 316c32 0 53 -6 64 -16c9 6 21 9 38 9l25 -1l-44 -253 c-23 -135 1 -174 45 -174c66 0 156 95 156 268c0 190 -130 315 -305 315c-189 0 -355 -176 -355 -430c0 -241 154 -362 326 -362c83 0 163 27 232 75l11 -20c6 -10 -2 -25 -32 -47c-51 -36 -129 -60 -219 -60zM379 94c47 0 120 63 131 123l39 227c-18 6 -39 9 -62 9 c-83 0 -162 -78 -162 -255c0 -80 22 -104 54 -104z" glyph-name="at" horiz-adv-x="888" unicode="@"/><glyph d="M20 0l232 700h51c16 0 26 -9 32 -30l205 -670h-50c-17 0 -28 9 -33 28l-54 179h-248l-59 -182c-6 -18 -15 -25 -31 -25h-45zM283 615l-113 -350h218l-103 350h-2z" glyph-name="A" horiz-adv-x="560" unicode="A"/><glyph d="M260 -5c-52 0 -102 2 -152 7v696c53 4 104 7 159 7c128 0 203 -69 203 -171c0 -93 -48 -149 -111 -169v-2c84 -13 139 -70 139 -159c0 -123 -91 -209 -238 -209zM261 51c99 0 166 52 166 147c0 78 -53 132 -173 132c-28 0 -44 0 -78 -1v-275c31 -2 53 -3 85 -3zM258 386 c83 0 141 50 141 142c0 76 -54 121 -139 121c-34 0 -58 -1 -84 -3v-259c30 -1 53 -1 82 -1z" glyph-name="B" horiz-adv-x="543" unicode="B"/><glyph d="M322 -8c-145 0 -271 96 -271 343c0 245 137 374 291 374c58 0 94 -7 131 -22c22 -9 26 -21 21 -35l-10 -28c-48 21 -92 28 -145 28c-109 0 -217 -104 -217 -309c0 -217 100 -295 204 -295c57 0 107 11 163 39l6 -22c4 -15 -3 -28 -19 -38c-38 -23 -85 -35 -154 -35z" glyph-name="C" horiz-adv-x="511" unicode="C"/><glyph d="M292 -6c-65 0 -124 3 -184 8v695c69 5 130 8 194 8c198 0 309 -114 309 -333c0 -256 -134 -378 -319 -378zM292 50c151 0 248 94 248 316c0 195 -96 283 -244 283c-40 0 -82 -2 -120 -5v-590c42 -3 76 -4 116 -4z" glyph-name="D" horiz-adv-x="657" unicode="D"/><glyph d="M108 0v700h334v-34c0 -19 -10 -25 -31 -25h-235v-255h241v-37c0 -16 -9 -22 -26 -22h-215v-269h268v-35c0 -17 -9 -23 -29 -23h-307z" glyph-name="E" horiz-adv-x="475" unicode="E"/><glyph d="M131 0c-15 0 -23 9 -23 33v667h334v-34c0 -19 -10 -25 -31 -25h-235v-263h245v-36c0 -16 -9 -23 -26 -23h-219v-319h-45z" glyph-name="F" horiz-adv-x="472" unicode="F"/><glyph d="M335 -8c-158 0 -284 97 -284 344c0 245 137 373 294 373c62 0 99 -6 135 -21c23 -10 28 -23 22 -37l-10 -25c-51 19 -94 26 -150 26c-112 0 -220 -96 -220 -309c0 -221 102 -295 218 -295c49 0 79 2 116 8v218h-113v52c31 3 63 4 100 4c30 0 50 0 78 -2v-318 c-61 -13 -105 -18 -186 -18z" glyph-name="G" horiz-adv-x="596" unicode="G"/><glyph d="M129 0c-15 0 -21 7 -21 32v668h43c19 0 25 -7 25 -32v-276h309v308h42c19 0 26 -7 26 -32v-668h-46c-16 0 -22 7 -22 32v301h-309v-333h-47z" glyph-name="H" horiz-adv-x="661" unicode="H"/><glyph d="M129 0c-14 0 -21 7 -21 31v669h47c14 0 21 -7 21 -31v-669h-47z" glyph-name="I" horiz-adv-x="284" unicode="I"/><glyph d="M108 700h46c15 0 22 -7 22 -32v-632c0 -96 -37 -153 -87 -182c-16 -9 -32 -8 -39 3l-15 24c47 34 73 73 73 146v673z" glyph-name="J" horiz-adv-x="284" unicode="J"/><glyph d="M132 0c-16 0 -24 8 -24 36v664h46c15 0 22 -7 22 -34v-289h27l231 302c12 16 21 21 37 21h56l-267 -344l289 -356h-53c-23 0 -40 8 -59 31l-235 289h-26v-320h-44z" glyph-name="K" horiz-adv-x="564" unicode="K"/><glyph d="M108 0v700h47c14 0 21 -7 21 -31v-611h282v-35c0 -17 -10 -23 -29 -23h-321z" glyph-name="L" horiz-adv-x="474" unicode="L"/><glyph d="M129 0c-15 0 -21 5 -21 30v670h70c23 0 37 -9 50 -36l194 -411h1l209 447h70c20 0 25 -7 25 -27v-673h-49c-14 0 -19 6 -19 28v589h-2l-204 -430c-10 -21 -19 -28 -33 -28h-28l-217 458h-2v-617h-44z" glyph-name="M" horiz-adv-x="835" unicode="M"/><glyph d="M129 0c-15 0 -21 6 -21 28v672h70c21 0 38 -10 51 -38l248 -539h2v577h44c16 0 21 -7 21 -29v-671h-82l-287 616h-2v-616h-44z" glyph-name="N" horiz-adv-x="652" unicode="N"/><glyph d="M327 -9c-152 0 -276 111 -276 348c0 240 132 369 290 369c152 0 276 -111 276 -347c0 -241 -132 -370 -290 -370zM332 49c109 0 214 94 214 304c0 218 -104 298 -210 298c-108 0 -214 -96 -214 -304c0 -220 104 -298 210 -298z" glyph-name="O" horiz-adv-x="668" unicode="O"/><glyph d="M130 0c-15 0 -22 9 -22 33v665c58 4 109 7 161 7c137 0 208 -75 208 -192c0 -137 -91 -223 -220 -223c-34 0 -58 1 -81 3v-293h-46zM256 346c88 0 150 60 150 162c0 92 -54 141 -144 141c-29 0 -57 -1 -86 -3v-297c28 -2 52 -3 80 -3z" glyph-name="P" horiz-adv-x="524" unicode="P"/><glyph d="M570 -131c-28 0 -56 9 -88 35l-115 91c-14 -3 -25 -4 -40 -4c-152 0 -276 111 -276 348c0 240 132 369 290 369c152 0 276 -111 276 -347c0 -183 -76 -297 -181 -345v-1l98 -70c20 -14 44 -23 60 -23c8 0 16 1 22 3l-3 -33c-1 -7 -5 -13 -12 -17s-18 -6 -31 -6zM332 49 c109 0 214 94 214 304c0 218 -104 298 -210 298c-108 0 -214 -96 -214 -304c0 -220 104 -298 210 -298z" glyph-name="Q" horiz-adv-x="668" unicode="Q"/><glyph d="M130 0c-14 0 -22 8 -22 32v666c54 4 111 7 160 7c138 0 209 -75 209 -182c0 -102 -59 -168 -132 -185v-2c49 -16 78 -46 101 -115l75 -221h-49c-17 0 -25 5 -33 29l-59 174c-29 83 -72 110 -137 110h-67v-313h-46zM248 369c99 0 158 55 158 149c0 82 -54 131 -143 131 c-33 0 -63 -1 -87 -3v-275c30 -2 45 -2 72 -2z" glyph-name="R" horiz-adv-x="554" unicode="R"/><glyph d="M199 -8c-64 0 -116 11 -143 23c-18 8 -23 16 -21 28l5 36c56 -21 107 -30 163 -30c86 0 154 55 155 124c0 58 -28 95 -104 133l-89 44c-81 40 -120 95 -120 174c0 103 85 185 205 185c53 0 80 -4 112 -14c19 -6 24 -17 22 -29l-6 -33c-44 13 -80 19 -130 19 c-80 0 -138 -52 -138 -116c0 -56 28 -93 96 -126l87 -43c94 -46 129 -96 129 -177c0 -114 -95 -198 -223 -198z" glyph-name="S" horiz-adv-x="461" unicode="S"/><glyph d="M253 0c-14 0 -21 7 -21 31v610h-185c-20 0 -30 6 -30 25v34h500v-34c0 -19 -11 -25 -31 -25h-186v-641h-47z" glyph-name="T" horiz-adv-x="533" unicode="T"/><glyph d="M318 -8c-142 0 -224 67 -224 253v455h48c13 0 20 -7 20 -31v-420c0 -149 62 -199 162 -199c93 0 157 59 157 200v450h46c13 0 20 -7 20 -31v-414c0 -171 -90 -263 -229 -263z" glyph-name="U" horiz-adv-x="641" unicode="U"/><glyph d="M244 0l-224 700h51c19 0 27 -7 35 -34l178 -572h2l172 580c5 18 15 26 34 26h45l-213 -674c-6 -18 -15 -26 -31 -26h-49z" glyph-name="V" horiz-adv-x="557" unicode="V"/><glyph d="M218 0l-198 700h56c15 0 23 -9 29 -30l154 -576h2l156 606h50c17 0 25 -7 31 -27l155 -579h2l149 579c5 19 14 27 30 27h50l-191 -677c-5 -16 -13 -23 -29 -23h-51l-162 592h-2l-151 -569c-5 -17 -13 -23 -28 -23h-52z" glyph-name="W" horiz-adv-x="904" unicode="W"/><glyph d="M45 0c-18 0 -27 17 -11 41l203 316l-201 343h55c18 0 25 -5 36 -23l153 -260h3l171 283h38c18 0 25 -18 11 -38l-189 -295l217 -367h-50c-20 0 -32 6 -42 24l-168 285h-3l-186 -309h-37z" glyph-name="X" horiz-adv-x="556" unicode="X"/><glyph d="M249 0c-14 0 -21 7 -21 31v223l-208 446h53c20 0 27 -5 38 -29l154 -332h2l153 334c9 20 19 27 34 27h49l-207 -439v-261h-47z" glyph-name="Y" horiz-adv-x="524" unicode="Y"/><glyph d="M33 0v35c0 15 5 29 15 46l332 561h-306c-18 0 -27 9 -27 24v34h406v-35c0 -16 -6 -31 -18 -51l-328 -556h357v-33c0 -17 -9 -25 -28 -25h-403z" glyph-name="Z" horiz-adv-x="497" unicode="Z"/><glyph d="M96 -205v905h168v-52h-111v-801h111v-52h-168z" glyph-name="bracketleft" horiz-adv-x="288" unicode="["/><glyph d="M299 -186l-318 877l50 19l318 -876z" glyph-name="backslash" horiz-adv-x="331" unicode="\"/><glyph d="M24 -205v52h111v801h-111v52h168v-905h-168z" glyph-name="bracketright" horiz-adv-x="288" unicode="]"/><glyph d="M83 412l-36 37l218 219l218 -219l-37 -37l-181 182z" glyph-name="asciicircum" horiz-adv-x="529" unicode="^"/><glyph d="M8 -121v53h500v-53h-500z" glyph-name="underscore" horiz-adv-x="516" unicode="_"/><glyph d="M231 551c-15 0 -21 3 -32 17l-99 128h70l102 -145h-41z" glyph-name="grave" horiz-adv-x="421" unicode="`"/><glyph d="M176 -7c-74 0 -134 51 -134 132c0 93 82 168 199 168c35 0 62 -3 87 -8v75c0 62 -36 96 -100 96c-70 0 -106 -30 -106 -74v-31h-30c-16 0 -28 13 -28 41c0 59 64 117 176 117c99 0 152 -54 152 -138v-371h-39c-17 0 -23 5 -23 22v43h-2c-39 -47 -89 -72 -152 -72zM192 47 c54 0 108 36 136 83v105c-27 6 -55 8 -88 8c-78 0 -131 -47 -131 -110c0 -55 37 -86 83 -86z" glyph-name="a" horiz-adv-x="471" unicode="a"/><glyph d="M240 -8c-36 0 -69 6 -89 17c-5 -6 -10 -9 -23 -9h-39v750h44c16 0 21 -7 21 -26v-283h3c45 46 87 68 140 68c92 0 164 -69 164 -245c0 -172 -100 -272 -221 -272zM240 43c81 0 154 66 154 213c0 146 -51 194 -111 194c-42 0 -88 -28 -129 -80v-312c26 -10 51 -15 86 -15z" glyph-name="b" horiz-adv-x="508" unicode="b"/><glyph d="M237 -7c-101 0 -189 76 -189 246c0 176 100 271 215 271c38 0 63 -4 78 -12c15 -9 18 -18 16 -33l-4 -26c-27 10 -58 16 -89 16c-78 0 -149 -63 -149 -207c0 -147 67 -200 133 -200c40 0 73 9 108 28l8 -18c5 -10 2 -25 -10 -34c-22 -18 -62 -31 -117 -31z" glyph-name="c" horiz-adv-x="380" unicode="c"/><glyph d="M212 -7c-82 0 -164 73 -164 243c0 176 103 274 230 274c29 0 53 -3 74 -8v248h44c15 0 21 -7 21 -26v-724h-43c-16 0 -20 5 -20 22v44h-2c-34 -45 -80 -73 -140 -73zM225 49c45 0 96 33 127 83v316c-22 6 -49 9 -77 9c-85 0 -160 -75 -160 -213c0 -144 57 -195 110 -195z" glyph-name="d" horiz-adv-x="506" unicode="d"/><glyph d="M247 -7c-113 0 -202 77 -202 257c0 168 96 260 194 260c92 0 175 -66 175 -221c0 -30 -13 -47 -41 -47h-261c2 -144 66 -194 141 -194c57 0 102 9 146 29l7 -16c5 -12 4 -26 -9 -34c-33 -21 -81 -34 -150 -34zM113 294h236c0 108 -49 163 -115 163 c-60 0 -116 -63 -121 -163z" glyph-name="e" horiz-adv-x="449" unicode="e"/><glyph d="M114 0c-15 0 -21 6 -21 26v424h-54v52h54v107c0 93 56 145 129 145c28 0 46 -4 60 -12c10 -6 12 -17 10 -31l-4 -24c-23 8 -41 12 -65 12c-39 0 -65 -25 -65 -81v-116h113v-24c0 -19 -8 -28 -30 -28h-83v-450h-44z" glyph-name="f" horiz-adv-x="285" unicode="f"/><glyph d="M204 -255c-66 0 -108 11 -134 29c-12 9 -17 18 -13 31l7 25c38 -18 86 -31 143 -31c88 0 147 51 147 187v80h-2c-36 -46 -84 -74 -144 -74c-80 0 -160 71 -160 244c0 176 103 273 230 273c32 0 63 -6 81 -13c10 4 19 6 35 6h24v-510c0 -164 -86 -247 -214 -247zM224 49 c48 0 96 33 129 83v316c-23 6 -51 9 -78 9c-86 0 -160 -73 -160 -213c0 -146 56 -195 109 -195z" glyph-name="g" horiz-adv-x="507" unicode="g"/><glyph d="M110 0c-15 0 -21 6 -21 26v724h44c16 0 21 -7 21 -26v-307h3c44 61 97 92 150 92c83 0 132 -53 132 -153v-356h-44c-13 0 -21 6 -21 26v315c0 76 -30 107 -82 107c-38 0 -91 -34 -138 -106v-342h-44z" glyph-name="h" horiz-adv-x="517" unicode="h"/><glyph d="M121 645c-24 0 -43 19 -43 43s19 44 43 44s44 -20 44 -44s-20 -43 -44 -43zM111 0c-15 0 -22 6 -22 26v476h44c16 0 21 -6 21 -26v-476h-43z" glyph-name="i" horiz-adv-x="243" unicode="i"/><glyph d="M89 502h43c16 0 22 -6 22 -26v-533c0 -98 -38 -156 -89 -187c-15 -9 -29 -5 -37 6l-15 22c47 32 76 80 76 152v566zM121 645c-24 0 -43 19 -43 43s19 44 43 44s44 -20 44 -44s-20 -43 -44 -43z" glyph-name="j" horiz-adv-x="243" unicode="j"/><glyph d="M111 0c-16 0 -22 6 -22 26v724h44c16 0 21 -7 21 -26v-436h14l166 192c14 17 25 22 39 22h53l-201 -229l223 -273h-60c-15 0 -25 4 -37 19l-184 222h-13v-241h-43z" glyph-name="k" horiz-adv-x="445" unicode="k"/><glyph d="M110 0c-15 0 -21 6 -21 26v724h44c16 0 21 -7 21 -26v-724h-44z" glyph-name="l" horiz-adv-x="243" unicode="l"/><glyph d="M110 0c-15 0 -21 6 -21 26v476h43c17 0 22 -5 22 -23v-62h3c44 61 97 92 150 92c66 0 106 -31 125 -92h2c44 61 99 92 152 92c82 0 133 -53 133 -153v-356h-45c-14 0 -20 6 -20 26v315c0 76 -33 107 -84 107c-37 0 -88 -28 -132 -96v-352h-44c-15 0 -21 6 -21 26v315 c0 76 -30 107 -82 107c-38 0 -90 -34 -137 -106v-342h-44z" glyph-name="m" horiz-adv-x="797" unicode="m"/><glyph d="M110 0c-15 0 -21 6 -21 26v476h43c17 0 22 -5 22 -23v-62h3c44 61 97 92 150 92c83 0 132 -53 132 -153v-356h-44c-15 0 -21 6 -21 26v315c0 73 -30 107 -82 107c-38 0 -91 -34 -138 -106v-342h-44z" glyph-name="n" horiz-adv-x="517" unicode="n"/><glyph d="M245 -8c-109 0 -197 73 -197 249c0 174 99 270 211 270c113 0 198 -76 198 -246c0 -176 -102 -273 -212 -273zM249 48c72 0 141 68 141 210c0 144 -65 197 -135 197c-71 0 -140 -67 -140 -208c0 -149 64 -199 134 -199z" glyph-name="o" horiz-adv-x="504" unicode="o"/><glyph d="M111 -250c-15 0 -22 6 -22 26v726h43c17 0 22 -5 22 -23v-38h3c44 46 87 68 140 68c92 0 164 -67 164 -245c0 -172 -100 -272 -221 -272c-36 0 -63 3 -86 10v-252h-43zM240 43c81 0 154 66 154 213s-52 194 -111 194c-42 0 -88 -28 -129 -80v-314c27 -9 53 -13 86 -13z" glyph-name="p" horiz-adv-x="508" unicode="p"/><glyph d="M373 -250c-15 0 -21 6 -21 26v290h-2c-34 -46 -78 -73 -138 -73c-82 0 -164 72 -164 243c0 176 103 274 230 274c29 0 61 -6 78 -13c9 3 21 5 32 5h29v-752h-44zM225 49c45 0 96 33 127 83v316c-22 6 -49 9 -77 9c-85 0 -160 -74 -160 -213c0 -144 57 -195 110 -195z" glyph-name="q" horiz-adv-x="506" unicode="q"/><glyph d="M110 0c-15 0 -21 6 -21 26v476h43c17 0 22 -5 22 -23v-82h4c40 78 88 112 131 112c11 0 18 -1 25 -5c8 -5 14 -12 12 -29l-4 -31c-10 3 -23 4 -34 4c-36 0 -90 -41 -134 -136v-312h-44z" glyph-name="r" horiz-adv-x="338" unicode="r"/><glyph d="M157 -7c-52 0 -90 8 -110 20c-13 8 -19 17 -18 29l4 29c39 -15 85 -25 126 -25c66 0 114 36 114 84c0 38 -19 65 -77 87l-58 22c-63 24 -101 68 -101 132c0 77 67 138 165 138c44 0 74 -5 93 -14c13 -6 18 -13 16 -27l-5 -29c-33 11 -66 17 -105 17 c-62 0 -101 -37 -101 -77c0 -39 22 -64 72 -83l60 -22c72 -27 104 -71 104 -131c0 -85 -77 -150 -179 -150z" glyph-name="s" horiz-adv-x="369" unicode="s"/><glyph d="M210 -7c-70 0 -113 41 -113 124v333h-58v52h58v74c0 23 10 34 28 34h37v-108h117v-24c0 -19 -9 -28 -31 -28h-86v-322c0 -60 23 -80 60 -80c23 0 45 6 64 15l6 -23c2 -10 0 -20 -12 -28c-17 -11 -41 -19 -70 -19z" glyph-name="t" horiz-adv-x="322" unicode="t"/><glyph d="M210 -7c-81 0 -131 53 -131 152v357h44c15 0 21 -6 21 -26v-317c0 -74 33 -108 79 -108c39 0 88 34 135 109v342h44c15 0 21 -6 21 -26v-476h-44c-15 0 -21 6 -21 26v58h-4c-43 -62 -92 -91 -144 -91z" glyph-name="u" unicode="u"/><glyph d="M176 0l-163 502h45c21 0 29 -5 35 -26l119 -388h3l122 414h42c16 0 22 -10 17 -25l-149 -454c-6 -17 -14 -23 -26 -23h-45z" glyph-name="v" horiz-adv-x="411" unicode="v"/><glyph d="M166 0l-156 502h49c17 0 25 -5 31 -26l111 -388h3l113 414h48c16 0 24 -6 30 -26l114 -388h3l113 414h42c17 0 22 -10 17 -25l-140 -454c-5 -17 -14 -23 -26 -23h-44l-125 423h-2l-111 -400c-5 -17 -13 -23 -26 -23h-44z" glyph-name="w" horiz-adv-x="697" unicode="w"/><glyph d="M31 0c-14 0 -21 13 -11 27l150 227l-148 248h51c17 0 27 -6 35 -22l100 -171h2l116 193h40c14 0 21 -13 11 -27l-139 -211l158 -264h-51c-17 0 -27 5 -37 23l-108 187h-2l-127 -210h-40z" glyph-name="x" horiz-adv-x="418" unicode="x"/><glyph d="M62 -257c-13 0 -28 2 -41 7c-16 7 -24 17 -21 31l6 25c17 -9 38 -13 57 -13c32 0 62 26 87 105l32 108l-169 496h45c21 0 28 -6 34 -26l125 -380h2l115 406h42c15 0 21 -10 16 -25l-185 -580c-37 -117 -88 -154 -145 -154z" glyph-name="y" horiz-adv-x="405" unicode="y"/><glyph d="M23 0v27c0 13 3 26 10 38l234 381h-212c-16 0 -24 7 -24 21v35h309v-26c0 -14 -4 -28 -11 -41l-233 -379h254v-36c0 -13 -5 -20 -19 -20h-308z" glyph-name="z" horiz-adv-x="373" unicode="z"/><glyph d="M237 -209c-62 0 -104 34 -104 97v224c0 49 -32 87 -117 104v63c85 16 117 55 117 103v225c0 62 42 97 104 97c15 0 29 -2 43 -5v-43c-68 0 -91 -15 -91 -63v-217c0 -60 -41 -112 -130 -127v-4c89 -14 130 -67 130 -127v-217c0 -48 23 -62 91 -62v-43 c-14 -4 -28 -5 -43 -5z" glyph-name="braceleft" horiz-adv-x="300" unicode="{"/><glyph d="M78 -205v905h57v-905h-57z" glyph-name="bar" horiz-adv-x="213" unicode="|"/><glyph d="M64 -210c-15 0 -29 2 -44 5v43c68 0 91 14 91 63v217c0 59 42 112 130 126v4c-88 15 -130 68 -130 128v216c0 49 -23 63 -91 63v43c15 4 29 5 44 5c61 0 103 -34 103 -97v-224c0 -49 33 -87 117 -104v-63c-84 -16 -117 -55 -117 -103v-225c0 -62 -42 -97 -103 -97z" glyph-name="braceright" horiz-adv-x="300" unicode="}"/><glyph d="M342 234c-62 0 -113 76 -166 76c-32 0 -65 -22 -91 -55l-19 44c30 43 72 69 118 69c67 0 113 -76 166 -76c33 0 64 21 90 54l19 -43c-30 -43 -67 -69 -117 -69z" glyph-name="asciitilde" horiz-adv-x="529" unicode="~"/><glyph d="M20 0l232 700h51c16 0 26 -9 32 -30l205 -670h-50c-17 0 -28 9 -33 28l-54 179h-248l-59 -182c-6 -18 -15 -25 -31 -25h-45zM283 615l-113 -350h218l-103 350h-2zM210 774c-23 0 -40 18 -40 40s17 40 40 40c22 0 40 -18 40 -40s-18 -40 -40 -40zM354 774 c-22 0 -40 18 -40 40s18 40 40 40s40 -18 40 -40s-18 -40 -40 -40z" glyph-name="Adieresis" horiz-adv-x="560" unicode="Ä"/><glyph d="M20 0l232 700h51c16 0 26 -9 32 -30l205 -670h-50c-17 0 -28 9 -33 28l-54 179h-248l-59 -182c-6 -18 -15 -25 -31 -25h-45zM283 615l-113 -350h218l-103 350h-2zM286 749c-44 0 -82 37 -82 82s38 80 82 80c45 0 81 -35 81 -80s-36 -82 -81 -82zM286 786 c23 0 41 19 41 45c0 24 -18 43 -41 43c-25 0 -42 -19 -42 -43c0 -26 17 -45 42 -45z" glyph-name="Aring" horiz-adv-x="560" unicode="Å"/><glyph d="M322 -8c-145 0 -271 96 -271 343c0 245 137 374 291 374c58 0 94 -7 131 -22c22 -9 26 -21 21 -35l-10 -28c-48 21 -92 28 -145 28c-109 0 -217 -104 -217 -309c0 -217 100 -295 204 -295c57 0 107 11 163 39l6 -22c4 -15 -3 -28 -19 -38c-38 -23 -85 -35 -154 -35z M240 -192c-13 0 -18 7 -18 17v29h47c55 0 89 19 89 43c0 19 -17 30 -58 33l-24 2c-8 1 -12 6 -12 13v27l55 -2c61 -3 93 -29 93 -67c0 -51 -55 -95 -147 -95h-25z" glyph-name="Ccedilla" horiz-adv-x="511" unicode="Ç"/><glyph d="M108 0v700h334v-34c0 -19 -10 -25 -31 -25h-235v-255h241v-37c0 -16 -9 -22 -26 -22h-215v-269h268v-35c0 -17 -9 -23 -29 -23h-307zM228 751l102 145h70l-97 -128c-10 -14 -18 -17 -34 -17h-41z" glyph-name="Eacute" horiz-adv-x="475" unicode="É"/><glyph d="M129 0c-15 0 -21 6 -21 28v672h70c21 0 38 -10 51 -38l248 -539h2v577h44c16 0 21 -7 21 -29v-671h-82l-287 616h-2v-616h-44zM379 779c-39 0 -84 48 -116 48c-28 0 -53 -16 -71 -41l-13 38c21 36 51 54 88 54c46 0 86 -48 117 -48c27 0 53 16 70 41l13 -38 c-21 -37 -50 -54 -88 -54z" glyph-name="Ntilde" horiz-adv-x="652" unicode="Ñ"/><glyph d="M327 -9c-152 0 -276 111 -276 348c0 240 132 369 290 369c152 0 276 -111 276 -347c0 -241 -132 -370 -290 -370zM332 49c109 0 214 94 214 304c0 218 -104 298 -210 298c-108 0 -214 -96 -214 -304c0 -220 104 -298 210 -298zM262 774c-23 0 -40 18 -40 40s17 40 40 40 c22 0 40 -18 40 -40s-18 -40 -40 -40zM406 774c-22 0 -40 18 -40 40s18 40 40 40s40 -18 40 -40s-18 -40 -40 -40z" glyph-name="Odieresis" horiz-adv-x="668" unicode="Ö"/><glyph d="M318 -8c-142 0 -224 67 -224 253v455h48c13 0 20 -7 20 -31v-420c0 -149 62 -199 162 -199c93 0 157 59 157 200v450h46c13 0 20 -7 20 -31v-414c0 -171 -90 -263 -229 -263zM249 774c-23 0 -40 18 -40 40s17 40 40 40c22 0 40 -18 40 -40s-18 -40 -40 -40zM393 774 c-22 0 -40 18 -40 40s18 40 40 40s40 -18 40 -40s-18 -40 -40 -40z" glyph-name="Udieresis" horiz-adv-x="641" unicode="Ü"/><glyph d="M176 -7c-74 0 -134 51 -134 132c0 93 82 168 199 168c35 0 62 -3 87 -8v75c0 62 -36 96 -100 96c-70 0 -106 -30 -106 -74v-31h-30c-16 0 -28 13 -28 41c0 59 64 117 176 117c99 0 152 -54 152 -138v-371h-39c-17 0 -23 5 -23 22v43h-2c-39 -47 -89 -72 -152 -72zM192 47 c54 0 108 36 136 83v105c-27 6 -55 8 -88 8c-78 0 -131 -47 -131 -110c0 -55 37 -86 83 -86zM177 551l102 145h70l-97 -128c-10 -14 -18 -17 -34 -17h-41z" glyph-name="aacute" horiz-adv-x="471" unicode="á"/><glyph d="M176 -7c-74 0 -134 51 -134 132c0 93 82 168 199 168c35 0 62 -3 87 -8v75c0 62 -36 96 -100 96c-70 0 -106 -30 -106 -74v-31h-30c-16 0 -28 13 -28 41c0 59 64 117 176 117c99 0 152 -54 152 -138v-371h-39c-17 0 -23 5 -23 22v43h-2c-39 -47 -89 -72 -152 -72zM192 47 c54 0 108 36 136 83v105c-27 6 -55 8 -88 8c-78 0 -131 -47 -131 -110c0 -55 37 -86 83 -86zM240 551c-15 0 -21 3 -32 17l-99 128h70l102 -145h-41z" glyph-name="agrave" horiz-adv-x="471" unicode="à"/><glyph d="M176 -7c-74 0 -134 51 -134 132c0 93 82 168 199 168c35 0 62 -3 87 -8v75c0 62 -36 96 -100 96c-70 0 -106 -30 -106 -74v-31h-30c-16 0 -28 13 -28 41c0 59 64 117 176 117c99 0 152 -54 152 -138v-371h-39c-17 0 -23 5 -23 22v43h-2c-39 -47 -89 -72 -152 -72zM192 47 c54 0 108 36 136 83v105c-27 6 -55 8 -88 8c-78 0 -131 -47 -131 -110c0 -55 37 -86 83 -86zM92 551l106 145h48c14 0 19 -5 26 -14l90 -131h-43c-15 0 -20 2 -31 17l-59 86h-5l-61 -89c-7 -10 -13 -14 -26 -14h-45z" glyph-name="acircumflex" horiz-adv-x="471" unicode="â"/><glyph d="M176 -7c-74 0 -134 51 -134 132c0 93 82 168 199 168c35 0 62 -3 87 -8v75c0 62 -36 96 -100 96c-70 0 -106 -30 -106 -74v-31h-30c-16 0 -28 13 -28 41c0 59 64 117 176 117c99 0 152 -54 152 -138v-371h-39c-17 0 -23 5 -23 22v43h-2c-39 -47 -89 -72 -152 -72zM192 47 c54 0 108 36 136 83v105c-27 6 -55 8 -88 8c-78 0 -131 -47 -131 -110c0 -55 37 -86 83 -86zM156 574c-23 0 -40 18 -40 40s17 40 40 40c22 0 40 -18 40 -40s-18 -40 -40 -40zM300 574c-22 0 -40 18 -40 40s18 40 40 40s40 -18 40 -40s-18 -40 -40 -40z" glyph-name="adieresis" horiz-adv-x="471" unicode="ä"/><glyph d="M176 -7c-74 0 -134 51 -134 132c0 93 82 168 199 168c35 0 62 -3 87 -8v75c0 62 -36 96 -100 96c-70 0 -106 -30 -106 -74v-31h-30c-16 0 -28 13 -28 41c0 59 64 117 176 117c99 0 152 -54 152 -138v-371h-39c-17 0 -23 5 -23 22v43h-2c-39 -47 -89 -72 -152 -72zM192 47 c54 0 108 36 136 83v105c-27 6 -55 8 -88 8c-78 0 -131 -47 -131 -110c0 -55 37 -86 83 -86zM284 579c-39 0 -84 48 -116 48c-28 0 -53 -16 -71 -41l-13 38c21 36 51 54 88 54c46 0 86 -48 117 -48c27 0 53 16 70 41l13 -38c-21 -37 -50 -54 -88 -54z" glyph-name="atilde" horiz-adv-x="471" unicode="ã"/><glyph d="M176 -7c-74 0 -134 51 -134 132c0 93 82 168 199 168c35 0 62 -3 87 -8v75c0 62 -36 96 -100 96c-70 0 -106 -30 -106 -74v-31h-30c-16 0 -28 13 -28 41c0 59 64 117 176 117c99 0 152 -54 152 -138v-371h-39c-17 0 -23 5 -23 22v43h-2c-39 -47 -89 -72 -152 -72zM192 47 c54 0 108 36 136 83v105c-27 6 -55 8 -88 8c-78 0 -131 -47 -131 -110c0 -55 37 -86 83 -86zM229 549c-44 0 -82 37 -82 82s38 80 82 80c45 0 81 -35 81 -80s-36 -82 -81 -82zM229 586c23 0 41 19 41 45c0 24 -18 43 -41 43c-25 0 -42 -19 -42 -43c0 -26 17 -45 42 -45z" glyph-name="aring" horiz-adv-x="471" unicode="å"/><glyph d="M237 -7c-101 0 -189 76 -189 246c0 176 100 271 215 271c38 0 63 -4 78 -12c15 -9 18 -18 16 -33l-4 -26c-27 10 -58 16 -89 16c-78 0 -149 -63 -149 -207c0 -147 67 -200 133 -200c40 0 73 9 108 28l8 -18c5 -10 2 -25 -10 -34c-22 -18 -62 -31 -117 -31zM156 -192 c-13 0 -18 7 -18 17v29h47c55 0 89 19 89 43c0 19 -17 30 -58 33l-24 2c-8 1 -12 6 -12 13v27l55 -2c61 -3 93 -29 93 -67c0 -51 -55 -95 -147 -95h-25z" glyph-name="ccedilla" horiz-adv-x="380" unicode="ç"/><glyph d="M247 -7c-113 0 -202 77 -202 257c0 168 96 260 194 260c92 0 175 -66 175 -221c0 -30 -13 -47 -41 -47h-261c2 -144 66 -194 141 -194c57 0 102 9 146 29l7 -16c5 -12 4 -26 -9 -34c-33 -21 -81 -34 -150 -34zM113 294h236c0 108 -49 163 -115 163 c-60 0 -116 -63 -121 -163zM190 551l102 145h70l-97 -128c-10 -14 -18 -17 -34 -17h-41z" glyph-name="eacute" horiz-adv-x="449" unicode="é"/><glyph d="M247 -7c-113 0 -202 77 -202 257c0 168 96 260 194 260c92 0 175 -66 175 -221c0 -30 -13 -47 -41 -47h-261c2 -144 66 -194 141 -194c57 0 102 9 146 29l7 -16c5 -12 4 -26 -9 -34c-33 -21 -81 -34 -150 -34zM113 294h236c0 108 -49 163 -115 163 c-60 0 -116 -63 -121 -163zM240 551c-15 0 -21 3 -32 17l-99 128h70l102 -145h-41z" glyph-name="egrave" horiz-adv-x="449" unicode="è"/><glyph d="M247 -7c-113 0 -202 77 -202 257c0 168 96 260 194 260c92 0 175 -66 175 -221c0 -30 -13 -47 -41 -47h-261c2 -144 66 -194 141 -194c57 0 102 9 146 29l7 -16c5 -12 4 -26 -9 -34c-33 -21 -81 -34 -150 -34zM113 294h236c0 108 -49 163 -115 163 c-60 0 -116 -63 -121 -163zM91 551l106 145h48c14 0 19 -5 26 -14l90 -131h-43c-15 0 -20 2 -31 17l-59 86h-5l-61 -89c-7 -10 -13 -14 -26 -14h-45z" glyph-name="ecircumflex" horiz-adv-x="449" unicode="ê"/><glyph d="M247 -7c-113 0 -202 77 -202 257c0 168 96 260 194 260c92 0 175 -66 175 -221c0 -30 -13 -47 -41 -47h-261c2 -144 66 -194 141 -194c57 0 102 9 146 29l7 -16c5 -12 4 -26 -9 -34c-33 -21 -81 -34 -150 -34zM113 294h236c0 108 -49 163 -115 163 c-60 0 -116 -63 -121 -163zM154 574c-23 0 -40 18 -40 40s17 40 40 40c22 0 40 -18 40 -40s-18 -40 -40 -40zM298 574c-22 0 -40 18 -40 40s18 40 40 40s40 -18 40 -40s-18 -40 -40 -40z" glyph-name="edieresis" horiz-adv-x="449" unicode="ë"/><glyph d="M71 551l102 145h70l-97 -128c-10 -14 -18 -17 -34 -17h-41zM115 0c-18 0 -26 8 -26 32v470h41c18 0 24 -7 24 -33v-469h-39z" glyph-name="iacute" horiz-adv-x="243" unicode="í"/><glyph d="M125 551c-15 0 -21 3 -32 17l-99 128h70l102 -145h-41zM115 0c-18 0 -26 8 -26 32v470h41c18 0 24 -7 24 -33v-469h-39z" glyph-name="igrave" horiz-adv-x="243" unicode="ì"/><glyph d="M115 0c-18 0 -26 8 -26 32v470h41c18 0 24 -7 24 -33v-469h-39zM-12 551l106 145h48c14 0 19 -5 26 -14l90 -131h-43c-15 0 -20 2 -31 17l-59 86h-5l-61 -89c-7 -10 -13 -14 -26 -14h-45z" glyph-name="icircumflex" horiz-adv-x="243" unicode="î"/><glyph d="M51 574c-23 0 -40 18 -40 40s17 40 40 40c22 0 40 -18 40 -40s-18 -40 -40 -40zM195 574c-22 0 -40 18 -40 40s18 40 40 40s40 -18 40 -40s-18 -40 -40 -40zM115 0c-18 0 -26 8 -26 32v470h41c18 0 24 -7 24 -33v-469h-39z" glyph-name="idieresis" horiz-adv-x="243" unicode="ï"/><glyph d="M110 0c-15 0 -21 6 -21 26v476h43c17 0 22 -5 22 -23v-62h3c44 61 97 92 150 92c83 0 132 -53 132 -153v-356h-44c-15 0 -21 6 -21 26v315c0 73 -30 107 -82 107c-38 0 -91 -34 -138 -106v-342h-44zM315 579c-39 0 -84 48 -116 48c-28 0 -53 -16 -71 -41l-13 38 c21 36 51 54 88 54c46 0 86 -48 117 -48c27 0 53 16 70 41l13 -38c-21 -37 -50 -54 -88 -54z" glyph-name="ntilde" horiz-adv-x="517" unicode="ñ"/><glyph d="M245 -8c-109 0 -197 73 -197 249c0 174 99 270 211 270c113 0 198 -76 198 -246c0 -176 -102 -273 -212 -273zM249 48c72 0 141 68 141 210c0 144 -65 197 -135 197c-71 0 -140 -67 -140 -208c0 -149 64 -199 134 -199zM204 551l102 145h70l-97 -128 c-10 -14 -18 -17 -34 -17h-41z" glyph-name="oacute" horiz-adv-x="504" unicode="ó"/><glyph d="M245 -8c-109 0 -197 73 -197 249c0 174 99 270 211 270c113 0 198 -76 198 -246c0 -176 -102 -273 -212 -273zM249 48c72 0 141 68 141 210c0 144 -65 197 -135 197c-71 0 -140 -67 -140 -208c0 -149 64 -199 134 -199zM261 551c-15 0 -21 3 -32 17l-99 128h70l102 -145 h-41z" glyph-name="ograve" horiz-adv-x="504" unicode="ò"/><glyph d="M245 -8c-109 0 -197 73 -197 249c0 174 99 270 211 270c113 0 198 -76 198 -246c0 -176 -102 -273 -212 -273zM249 48c72 0 141 68 141 210c0 144 -65 197 -135 197c-71 0 -140 -67 -140 -208c0 -149 64 -199 134 -199zM115 551l106 145h48c14 0 19 -5 26 -14l90 -131 h-43c-15 0 -20 2 -31 17l-59 86h-5l-61 -89c-7 -10 -13 -14 -26 -14h-45z" glyph-name="ocircumflex" horiz-adv-x="504" unicode="ô"/><glyph d="M245 -8c-109 0 -197 73 -197 249c0 174 99 270 211 270c113 0 198 -76 198 -246c0 -176 -102 -273 -212 -273zM249 48c72 0 141 68 141 210c0 144 -65 197 -135 197c-71 0 -140 -67 -140 -208c0 -149 64 -199 134 -199zM180 574c-23 0 -40 18 -40 40s17 40 40 40 c22 0 40 -18 40 -40s-18 -40 -40 -40zM324 574c-22 0 -40 18 -40 40s18 40 40 40s40 -18 40 -40s-18 -40 -40 -40z" glyph-name="odieresis" horiz-adv-x="504" unicode="ö"/><glyph d="M245 -8c-109 0 -197 73 -197 249c0 174 99 270 211 270c113 0 198 -76 198 -246c0 -176 -102 -273 -212 -273zM249 48c72 0 141 68 141 210c0 144 -65 197 -135 197c-71 0 -140 -67 -140 -208c0 -149 64 -199 134 -199zM307 579c-39 0 -84 48 -116 48 c-28 0 -53 -16 -71 -41l-13 38c21 36 51 54 88 54c46 0 86 -48 117 -48c27 0 53 16 70 41l13 -38c-21 -37 -50 -54 -88 -54z" glyph-name="otilde" horiz-adv-x="504" unicode="õ"/><glyph d="M210 -7c-81 0 -131 53 -131 152v357h44c15 0 21 -6 21 -26v-317c0 -74 33 -108 79 -108c39 0 88 34 135 109v342h44c15 0 21 -6 21 -26v-476h-44c-15 0 -21 6 -21 26v58h-4c-43 -62 -92 -91 -144 -91zM192 551l102 145h70l-97 -128c-10 -14 -18 -17 -34 -17h-41z" glyph-name="uacute" unicode="ú"/><glyph d="M210 -7c-81 0 -131 53 -131 152v357h44c15 0 21 -6 21 -26v-317c0 -74 33 -108 79 -108c39 0 88 34 135 109v342h44c15 0 21 -6 21 -26v-476h-44c-15 0 -21 6 -21 26v58h-4c-43 -62 -92 -91 -144 -91zM271 551c-15 0 -21 3 -32 17l-99 128h70l102 -145h-41z" glyph-name="ugrave" unicode="ù"/><glyph d="M210 -7c-81 0 -131 53 -131 152v357h44c15 0 21 -6 21 -26v-317c0 -74 33 -108 79 -108c39 0 88 34 135 109v342h44c15 0 21 -6 21 -26v-476h-44c-15 0 -21 6 -21 26v58h-4c-43 -62 -92 -91 -144 -91zM115 551l106 145h48c14 0 19 -5 26 -14l90 -131h-43 c-15 0 -20 2 -31 17l-59 86h-5l-61 -89c-7 -10 -13 -14 -26 -14h-45z" glyph-name="ucircumflex" unicode="û"/><glyph d="M210 -7c-81 0 -131 53 -131 152v357h44c15 0 21 -6 21 -26v-317c0 -74 33 -108 79 -108c39 0 88 34 135 109v342h44c15 0 21 -6 21 -26v-476h-44c-15 0 -21 6 -21 26v58h-4c-43 -62 -92 -91 -144 -91zM178 574c-23 0 -40 18 -40 40s17 40 40 40c22 0 40 -18 40 -40 s-18 -40 -40 -40zM322 574c-22 0 -40 18 -40 40s18 40 40 40s40 -18 40 -40s-18 -40 -40 -40z" glyph-name="udieresis" unicode="ü"/><glyph d="M188 -192c-11 0 -15 3 -15 16l3 646v52h-36l-109 -3v52l109 -4h36v36l-3 138h54l-3 -138v-36h36l111 4v-52l-111 3h-36v-52l3 -662h-39z" glyph-name="dagger" horiz-adv-x="400" unicode="†"/><glyph d="M192 400c-85 0 -153 68 -153 153s68 154 153 154s154 -69 154 -154s-69 -153 -154 -153zM192 452c54 0 101 45 101 101s-47 102 -101 102c-55 0 -100 -46 -100 -102s45 -101 100 -101z" glyph-name="degree" horiz-adv-x="382" unicode="°"/><glyph d="M282 0v93c-99 2 -184 79 -184 246c0 160 82 253 184 268v93h41v-90c32 -1 54 -5 68 -12c15 -9 18 -18 16 -33l-4 -26c-25 10 -53 16 -81 17v-408c29 3 56 12 84 28l8 -18c5 -10 2 -25 -10 -34c-17 -14 -44 -25 -81 -29v-95h-41zM283 148v405c-66 -16 -119 -81 -119 -205 c0 -135 57 -192 119 -200z" glyph-name="cent" horiz-adv-x="532" unicode="¢"/><glyph d="M81 0v58h93v315h-93v59h93v124c0 92 67 151 159 151c45 0 73 -4 89 -11c12 -5 17 -17 14 -31l-5 -27c-26 8 -59 12 -98 12c-56 0 -92 -33 -92 -94v-124h181v-32c0 -19 -8 -27 -32 -27h-149v-315h237v-34c0 -17 -8 -24 -28 -24h-369z" glyph-name="sterling" horiz-adv-x="532" unicode="£"/><glyph d="M194 -255c-45 0 -76 5 -96 14c-13 6 -18 15 -16 27l4 29c36 -10 71 -15 110 -15c61 0 104 31 104 84c0 37 -15 65 -81 117l-79 64c-54 43 -77 86 -77 144c0 79 57 147 141 172v1l-37 29c-72 57 -94 99 -94 151c0 81 64 146 158 146c43 0 73 -4 93 -13 c13 -6 18 -18 16 -31l-4 -26c-35 11 -68 16 -107 16c-62 0 -99 -35 -99 -84c0 -40 14 -64 80 -117l80 -64c54 -44 77 -87 77 -145c0 -80 -59 -147 -142 -172v-1l37 -28c70 -53 95 -98 95 -152c0 -83 -70 -146 -163 -146zM177 111l11 -9h1c73 22 122 75 122 132 c0 41 -17 75 -57 107l-12 10h-1c-74 -22 -122 -74 -122 -131c0 -43 18 -76 58 -109z" glyph-name="section" horiz-adv-x="430" unicode="§"/><glyph d="M123 292c-41 0 -74 33 -74 74c0 40 33 73 74 73c40 0 73 -33 73 -73c0 -41 -33 -74 -73 -74z" glyph-name="bullet" horiz-adv-x="246" unicode="•"/><glyph d="M284 -146v423c-17 -7 -43 -11 -70 -11c-104 0 -184 73 -184 195c0 148 99 243 243 243c49 0 118 -4 143 -4h22v-846h-58v804h-48v-804h-48z" glyph-name="paragraph" horiz-adv-x="509" unicode="¶"/><glyph d="M336 -7c-47 0 -78 10 -98 22c-11 6 -15 17 -14 27l4 28c39 -16 75 -24 112 -24c53 0 91 35 91 82c0 37 -16 64 -62 89l-42 23c-61 33 -92 68 -92 122c0 102 119 139 119 244c0 55 -43 92 -104 92c-50 0 -96 -34 -96 -94v-604h-42c-15 0 -23 10 -23 35v560 c0 98 73 159 166 159c97 0 159 -61 159 -139c0 -128 -117 -165 -117 -243c0 -35 20 -57 65 -81l42 -22c64 -33 89 -73 89 -132c0 -81 -66 -144 -157 -144z" glyph-name="germandbls" horiz-adv-x="513" unicode="ß"/><glyph d="M302 141c-10 0 -16 6 -16 24v394c35 3 71 5 106 5c86 0 128 -47 128 -109c0 -63 -34 -102 -79 -113v-1c29 -8 46 -26 61 -69l45 -131h-38c-12 0 -18 3 -23 19l-34 101c-17 49 -43 64 -78 64h-38v-184h-34zM378 364c55 0 90 32 90 86c0 46 -31 74 -83 74 c-19 0 -32 0 -49 -2v-157c15 -1 27 -1 42 -1zM397 -7c-197 0 -357 160 -357 357s160 357 357 357s357 -160 357 -357s-160 -357 -357 -357zM397 35c174 0 314 141 314 315s-140 314 -314 314s-315 -140 -315 -314s141 -315 315 -315z" glyph-name="registered" horiz-adv-x="794" unicode="®"/><glyph d="M405 136c-94 0 -169 59 -169 206c0 148 84 226 178 226c31 0 52 -4 75 -14c17 -7 20 -15 17 -25l-7 -21c-28 13 -56 18 -88 18c-62 0 -122 -56 -122 -179c0 -126 58 -170 119 -170c36 0 67 8 99 24l5 -16c3 -11 -2 -20 -14 -27c-23 -14 -54 -22 -93 -22zM397 35 c174 0 314 141 314 315s-140 314 -314 314s-315 -140 -315 -314s141 -315 315 -315zM397 -7c-197 0 -357 160 -357 357s160 357 357 357s357 -160 357 -357s-160 -357 -357 -357z" glyph-name="copyright" horiz-adv-x="794" unicode="©"/><glyph d="M393 350c-10 0 -14 3 -14 19v331h51c14 0 24 -7 32 -25l85 -176l95 201h45c14 0 17 -5 17 -18v-332h-36c-10 0 -12 3 -12 17v274h-1l-94 -196c-5 -11 -12 -14 -19 -14h-15l-103 210h-1v-291h-30zM168 350c-10 0 -16 7 -16 23v287h-82c-12 0 -20 5 -20 16v24h253v-24 c0 -11 -8 -16 -20 -16h-82v-310h-33z" glyph-name="trademark" horiz-adv-x="787" unicode="™"/><glyph d="M119 551l102 145h70l-97 -128c-10 -14 -18 -17 -34 -17h-41z" glyph-name="acute" horiz-adv-x="421" unicode="´"/><glyph d="M121 574c-23 0 -40 18 -40 40s17 40 40 40c22 0 40 -18 40 -40s-18 -40 -40 -40zM265 574c-22 0 -40 18 -40 40s18 40 40 40s40 -18 40 -40s-18 -40 -40 -40z" glyph-name="dieresis" horiz-adv-x="389" unicode="¨"/><glyph d="M208 89l-56 21l27 76h-120v58h142l43 122h-185v58h208l35 101l56 -21l-29 -80h124v-58h-146l-43 -122h189v-58h-211z" glyph-name="notequal" unicode="≠"/><glyph d="M0 0l422 700h339v-34c0 -19 -10 -25 -30 -25h-235v-255h240v-37c0 -16 -9 -22 -27 -22h-213v-269h267v-34c0 -18 -9 -24 -30 -24h-305v207h-235l-108 -182c-10 -17 -22 -25 -38 -25h-47zM426 604l-201 -339h203v339h-2z" glyph-name="AE" horiz-adv-x="794" unicode="Æ"/><glyph d="M145 -25l-42 24l39 67c-56 58 -91 147 -91 273c0 240 132 369 290 369c54 0 106 -15 147 -44l37 64l41 -25l-40 -69c56 -57 91 -148 91 -273c0 -241 -132 -370 -290 -370c-55 0 -105 14 -148 43zM177 125l280 485c-37 29 -79 42 -121 42c-108 0 -215 -97 -215 -305 c0 -101 22 -173 56 -222zM332 48c109 0 215 95 215 305c0 100 -22 173 -57 221l-279 -484c35 -30 77 -42 121 -42z" glyph-name="Oslash" horiz-adv-x="668" unicode="Ø"/><glyph d="M504 153c-62 0 -127 43 -163 127h-2l-26 -38c-40 -58 -80 -87 -133 -87c-73 0 -141 67 -141 168c0 98 68 168 144 168c66 0 127 -43 163 -127h2l26 38c40 58 80 87 133 87c73 0 141 -67 141 -168c0 -99 -68 -168 -144 -168zM184 205c31 0 59 19 100 79l28 41 c-33 76 -83 119 -129 119c-48 0 -94 -53 -94 -120c0 -74 48 -119 95 -119zM504 200c48 0 94 54 94 120c0 74 -48 119 -95 119c-31 0 -63 -23 -100 -79l-27 -42c33 -75 81 -118 128 -118z" glyph-name="infinity" horiz-adv-x="687" unicode="∞"/><glyph d="M227 116v160h-168v58h168v168h58v-168h168v-58h-168v-160h-58zM59 0v58h394v-58h-394z" glyph-name="plusminus" unicode="±"/><glyph d="M413 105l-335 182v33l334 182l26 -52l-273 -145v-1l273 -147zM59 0v58h394v-58h-394z" glyph-name="lessequal" unicode="≤"/><glyph d="M99 105l-25 51l273 146v1l-273 146l25 53l335 -182v-34zM59 0v58h394v-58h-394z" glyph-name="greaterequal" unicode="≥"/><glyph d="M253 0c-14 0 -21 7 -21 31v71h-143v57h144v83h-144v58h126l-171 400h54c20 0 29 -7 38 -30l134 -335h2l131 338c7 19 20 27 35 27h49l-172 -400h130v-32c0 -16 -10 -26 -30 -26h-116v-83h146v-32c0 -16 -10 -25 -30 -25h-115v-102h-47z" glyph-name="yen" horiz-adv-x="532" unicode="¥"/><glyph d="M114 -250c-17 0 -25 8 -25 32v720h44c15 0 21 -6 21 -26v-317c0 -74 33 -108 79 -108c39 0 88 34 135 109v342h44c15 0 21 -6 21 -26v-476h-44c-15 0 -21 6 -21 26v58h-4c-43 -62 -92 -91 -144 -91c-26 0 -48 6 -66 18v-261h-40z" glyph-name="mu" horiz-adv-x="522" unicode="µ"/><glyph d="M224 -8c-95 0 -174 74 -174 244c0 176 101 273 222 273c39 0 65 -7 90 -24l2 2c-23 139 -79 215 -163 215c-28 0 -51 -3 -74 -11l-9 22c-4 9 3 22 17 30c16 9 38 12 70 12c131 0 233 -104 233 -426c0 -241 -91 -337 -214 -337zM236 47c82 0 135 75 135 275 c0 39 -1 67 -7 108c-25 18 -56 27 -95 27c-80 0 -152 -76 -152 -213c0 -144 58 -197 119 -197z" glyph-name="partialdiff" unicode="∂"/><glyph d="M16 0v55l251 300l-251 290v55h390v-38c0 -15 -6 -21 -25 -21h-279v-3l228 -262v-37l-234 -277v-4h316v-38c0 -15 -5 -20 -19 -20h-377z" glyph-name="summation" horiz-adv-x="431" unicode="∑"/><glyph d="M124 0c-12 0 -15 7 -15 19v616h-80v65h551v-47c0 -13 -5 -18 -16 -18h-60v-635h-52c-12 0 -16 7 -16 19v616h-260v-635h-52z" glyph-name="product" horiz-adv-x="609" unicode="∏"/><glyph d="M459 -5c-55 0 -95 44 -95 131v320h-184v-293c0 -59 -11 -109 -32 -153h-60c19 51 29 103 29 147v298h-11c-25 0 -54 -7 -82 -22v52c27 18 60 27 104 27h312c39 0 68 5 99 17v-54c-26 -14 -57 -20 -98 -20h-13v-314c0 -59 22 -80 47 -80c17 0 29 2 43 8l7 -29 c2 -7 -1 -15 -12 -21c-13 -9 -30 -14 -54 -14z" glyph-name="pi" horiz-adv-x="564" unicode="π"/><glyph d="M31 -255c-28 0 -45 5 -59 14c-11 7 -14 18 -11 29l5 24c22 -8 38 -11 60 -11c42 0 70 31 70 92v712c0 98 57 149 130 149c28 0 46 -4 60 -14c10 -7 14 -18 11 -29l-5 -24c-22 9 -38 12 -61 12c-41 0 -70 -32 -70 -93v-712c0 -98 -57 -149 -130 -149z" glyph-name="integral" horiz-adv-x="258" unicode="∫"/><glyph d="M126 372c-49 0 -90 33 -90 87c0 63 54 110 135 110c22 0 42 -2 54 -6v42c0 39 -20 58 -63 58s-65 -18 -65 -43v-19h-25c-13 0 -22 8 -22 29c0 40 43 77 123 77c72 0 108 -35 108 -94v-236h-37c-12 0 -17 4 -17 15v25h-3c-20 -27 -54 -45 -98 -45zM143 416 c38 0 65 20 82 45v65c-14 5 -33 6 -54 6c-46 0 -77 -26 -77 -66c0 -31 24 -50 49 -50z" glyph-name="ordfeminine" horiz-adv-x="331" unicode="ª"/><glyph d="M170 369c-75 0 -137 48 -137 162s68 176 149 176c80 0 138 -53 138 -160c0 -116 -72 -178 -150 -178zM176 415c46 0 85 37 85 128c0 86 -37 118 -84 118c-44 0 -85 -39 -85 -126c0 -88 40 -120 84 -120z" glyph-name="ordmasculine" horiz-adv-x="353" unicode="º"/><glyph d="M58 0v56h110v5c-69 53 -117 145 -117 278c0 240 132 369 290 369c152 0 276 -111 276 -347c0 -149 -59 -251 -123 -300v-5h116v-56h-194v55c71 52 130 142 130 298c0 218 -104 298 -210 298c-108 0 -214 -96 -214 -304c0 -144 51 -237 126 -292v-55h-190z" glyph-name="Omega" horiz-adv-x="668" unicode="Ω"/><glyph d="M176 -7c-74 0 -134 50 -134 132c0 92 81 168 199 168c35 0 62 -3 87 -8v75c0 64 -37 96 -100 96c-70 0 -106 -30 -106 -74v-31h-30c-16 0 -28 13 -28 41c0 59 64 117 176 117c72 0 120 -28 139 -83h1c35 53 86 84 141 84c92 0 175 -66 175 -221c0 -30 -12 -47 -41 -47 h-260c1 -144 64 -194 140 -194c57 0 102 9 145 29l8 -16c6 -12 3 -26 -9 -34c-33 -22 -81 -34 -150 -34c-73 0 -138 32 -172 107h-2c-37 -69 -104 -107 -179 -107zM195 47c54 0 107 35 146 96c-8 26 -13 58 -13 92c-27 6 -55 8 -88 8c-78 0 -131 -46 -131 -110 c0 -57 39 -86 86 -86zM396 294h235c0 108 -48 163 -115 163c-59 0 -115 -60 -120 -163z" glyph-name="ae" horiz-adv-x="732" unicode="æ"/><glyph d="M115 -24l-37 22l29 50c-37 40 -59 103 -59 193c0 174 99 270 211 270c37 0 69 -8 100 -26l25 43l38 -22l-28 -48c39 -40 63 -104 63 -193c0 -176 -102 -273 -212 -273c-39 0 -74 9 -105 28zM142 107l187 325c-22 16 -47 24 -74 24c-71 0 -141 -68 -141 -209 c0 -61 10 -103 28 -140zM249 47c72 0 142 69 142 211c0 62 -12 110 -32 142l-189 -327c24 -18 49 -26 79 -26z" glyph-name="oslash" horiz-adv-x="504" unicode="ø"/><glyph d="M228 -209c-106 0 -184 67 -184 163c0 78 37 132 106 170l39 23c43 25 60 45 60 78c0 32 -24 69 -47 89l36 10c5 1 14 -1 22 -6c27 -18 49 -52 49 -97c0 -48 -25 -83 -78 -114l-43 -25c-49 -29 -75 -70 -74 -118c0 -70 51 -114 126 -114c41 0 83 10 118 26l9 -27 c3 -10 -2 -23 -21 -34c-24 -13 -68 -24 -118 -24zM255 417c-24 0 -45 19 -45 44s21 44 45 44c25 0 46 -19 46 -44s-21 -44 -46 -44z" glyph-name="questiondown" horiz-adv-x="400" unicode="¿"/><glyph d="M144 417c-24 0 -45 19 -45 44s21 44 45 44c25 0 46 -19 46 -44s-21 -44 -46 -44zM138 -200c-20 0 -26 7 -26 33l3 339v152h34c17 0 25 -9 25 -33v-119l3 -372h-39z" glyph-name="exclamdown" horiz-adv-x="289" unicode="¡"/><glyph d="M396 176v194h-337v55h394v-249h-57z" glyph-name="logicalnot" horiz-adv-x="524" unicode="¬"/><glyph d="M234 0l-141 441l-82 -20l-11 50l145 37l130 -431h2l222 697l60 -15l-252 -745c-3 -10 -9 -14 -19 -14h-54z" glyph-name="radical" horiz-adv-x="524" unicode="√"/><glyph d="M146 -250l58 638h-79v54h83l12 120c10 97 61 145 136 145c29 0 44 -4 58 -13c11 -6 14 -18 11 -30l-6 -24c-22 8 -40 11 -64 11c-41 0 -68 -30 -73 -91l-11 -118h127v-25c0 -18 -9 -29 -34 -29h-97l-58 -638h-63z" glyph-name="florin" horiz-adv-x="532" unicode="ƒ"/><glyph d="M336 164c-62 0 -114 76 -164 76c-32 0 -64 -20 -96 -59l-22 44c33 45 76 73 123 73c65 0 111 -76 164 -76c32 0 63 21 94 58l22 -43c-32 -45 -71 -73 -121 -73zM336 327c-62 0 -114 76 -164 76c-32 0 -64 -21 -96 -60l-22 44c33 45 76 73 123 73c65 0 111 -76 164 -76 c32 0 63 20 94 59l22 -44c-32 -44 -71 -72 -121 -72z" glyph-name="approxequal" unicode="≈"/><glyph d="M33 0l259 700h56l245 -700h-560zM314 588l-187 -528h372l-179 528h-6z" glyph-name="Delta" horiz-adv-x="626" unicode="∆"/><glyph d="M219 36l-162 214l162 214h69l-156 -211l156 -217h-69zM398 36l-162 214l162 214h69l-156 -211l156 -217h-69z" glyph-name="guillemotleft" horiz-adv-x="528" unicode="«"/><glyph d="M62 37l156 210l-156 218h69l162 -214l-162 -214h-69zM241 37l156 210l-156 218h69l162 -214l-162 -214h-69z" glyph-name="guillemotright" horiz-adv-x="528" unicode="»"/><glyph d="M125 -5c-25 0 -46 20 -46 45s21 44 46 44s45 -19 45 -44s-20 -45 -45 -45zM335 -5c-25 0 -46 20 -46 45s21 44 46 44s45 -19 45 -44s-20 -45 -45 -45zM546 -5c-25 0 -46 20 -46 45s21 44 46 44s45 -19 45 -44s-20 -45 -45 -45z" glyph-name="ellipsis" horiz-adv-x="671" unicode="…"/><glyph glyph-name="uni00A0" horiz-adv-x="200"/><glyph d="M20 0l232 700h51c16 0 26 -9 32 -30l205 -670h-50c-17 0 -28 9 -33 28l-54 179h-248l-59 -182c-6 -18 -15 -25 -31 -25h-45zM283 615l-113 -350h218l-103 350h-2zM286 751c-15 0 -21 3 -32 17l-99 128h70l102 -145h-41z" glyph-name="Agrave" horiz-adv-x="560" unicode="À"/><glyph d="M20 0l232 700h51c16 0 26 -9 32 -30l205 -670h-50c-17 0 -28 9 -33 28l-54 179h-248l-59 -182c-6 -18 -15 -25 -31 -25h-45zM283 615l-113 -350h218l-103 350h-2zM336 779c-39 0 -84 48 -116 48c-28 0 -53 -16 -71 -41l-13 38c21 36 51 54 88 54c46 0 86 -48 117 -48 c27 0 53 16 70 41l13 -38c-21 -37 -50 -54 -88 -54z" glyph-name="Atilde" horiz-adv-x="560" unicode="Ã"/><glyph d="M327 -9c-152 0 -276 111 -276 348c0 240 132 369 290 369c152 0 276 -111 276 -347c0 -241 -132 -370 -290 -370zM332 49c109 0 214 94 214 304c0 218 -104 298 -210 298c-108 0 -214 -96 -214 -304c0 -220 104 -298 210 -298zM391 779c-39 0 -84 48 -116 48 c-28 0 -53 -16 -71 -41l-13 38c21 36 51 54 88 54c46 0 86 -48 117 -48c27 0 53 16 70 41l13 -38c-21 -37 -50 -54 -88 -54z" glyph-name="Otilde" horiz-adv-x="668" unicode="Õ"/><glyph d="M327 -9c-152 0 -276 112 -276 349c0 241 132 369 292 369c24 0 49 -3 69 -9h333v-34c0 -19 -10 -25 -30 -25h-235v-255h241v-37c0 -16 -9 -22 -27 -22h-214v-269h267v-34c0 -18 -9 -24 -29 -24h-306c-25 -5 -55 -9 -85 -9zM331 49c28 0 62 6 81 12v576 c-21 9 -48 14 -74 14c-110 0 -216 -97 -216 -303c0 -220 104 -299 209 -299z" glyph-name="OE" horiz-adv-x="779" unicode="Œ"/><glyph d="M245 -8c-107 0 -197 73 -197 249c0 174 99 270 211 270c77 0 139 -41 167 -109h2c34 71 92 108 155 108c92 0 176 -66 176 -221c0 -30 -14 -47 -41 -47h-261c2 -144 66 -194 140 -194c58 0 102 9 146 29l8 -16c6 -12 3 -26 -10 -34c-32 -22 -80 -34 -150 -34 c-79 0 -144 41 -172 117h-1c-36 -76 -103 -118 -173 -118zM249 48c72 0 140 66 140 210s-64 197 -134 197c-71 0 -140 -65 -140 -208c0 -150 65 -199 134 -199zM458 294h236c0 110 -50 163 -115 163c-59 0 -115 -58 -121 -163z" glyph-name="oe" horiz-adv-x="794" unicode="œ"/><glyph d="M0 255v47h500v-47h-500z" glyph-name="endash" horiz-adv-x="500" unicode="–"/><glyph d="M0 255v47h1000v-47h-1000z" glyph-name="emdash" horiz-adv-x="1000" unicode="—"/><glyph d="M126 545c-29 0 -47 22 -47 57c0 48 40 109 84 145c14 12 27 10 38 -1l13 -15c-35 -29 -63 -67 -72 -103c16 -5 28 -21 28 -40c0 -24 -20 -43 -44 -43zM275 545c-29 0 -47 22 -47 57c0 48 40 109 84 145c14 12 27 10 38 -1l13 -15c-35 -29 -63 -67 -72 -103 c16 -5 28 -21 28 -40c0 -24 -20 -43 -44 -43z" glyph-name="quotedblleft" horiz-adv-x="393" unicode="“"/><glyph d="M171 695c0 -48 -41 -109 -84 -145c-15 -12 -28 -10 -38 1l-14 15c35 29 64 67 73 103c-16 5 -28 21 -28 40c0 24 20 43 44 43c29 0 47 -22 47 -57zM321 695c0 -48 -41 -109 -84 -145c-15 -12 -28 -10 -38 1l-14 15c35 29 64 67 73 103c-16 5 -28 21 -28 40 c0 24 20 43 44 43c29 0 47 -22 47 -57z" glyph-name="quotedblright" horiz-adv-x="393" unicode="”"/><glyph d="M126 545c-29 0 -47 22 -47 57c0 48 40 109 84 145c14 12 27 10 38 -1l13 -15c-35 -29 -63 -67 -72 -103c16 -5 28 -21 28 -40c0 -24 -20 -43 -44 -43z" glyph-name="quoteleft" horiz-adv-x="250" unicode="‘"/><glyph d="M171 693c0 -48 -41 -109 -84 -145c-15 -12 -28 -10 -38 1l-14 15c35 29 64 67 73 103c-16 5 -28 21 -28 40c0 24 20 43 44 43c29 0 47 -22 47 -57z" glyph-name="quoteright" horiz-adv-x="250" unicode="’"/><glyph d="M256 90c-22 0 -39 18 -39 39c0 22 17 39 39 39c21 0 39 -17 39 -39c0 -21 -18 -39 -39 -39zM255 426c-21 0 -39 18 -39 39s18 39 39 39c22 0 39 -18 39 -39s-17 -39 -39 -39zM59 271v58h394v-58h-394z" glyph-name="divide" unicode="÷"/><glyph d="M264 0l-238 353l237 347h28l236 -347l-236 -353h-27zM94 355l184 -282l182 278l-184 277z" glyph-name="lozenge" horiz-adv-x="553" unicode="◊"/><glyph d="M62 -257c-13 0 -28 2 -41 7c-16 7 -24 17 -21 31l6 25c17 -9 38 -13 57 -13c32 0 62 26 87 105l32 108l-169 496h45c21 0 28 -6 34 -26l125 -380h2l115 406h42c15 0 21 -10 16 -25l-185 -580c-37 -117 -88 -154 -145 -154zM135 574c-23 0 -40 18 -40 40s17 40 40 40 c22 0 40 -18 40 -40s-18 -40 -40 -40zM279 574c-22 0 -40 18 -40 40s18 40 40 40s40 -18 40 -40s-18 -40 -40 -40z" glyph-name="ydieresis" horiz-adv-x="405" unicode="ÿ"/><glyph d="M249 0c-14 0 -21 7 -21 31v223l-208 446h53c20 0 27 -5 38 -29l154 -332h2l153 334c9 20 19 27 34 27h49l-207 -439v-261h-47zM191 774c-23 0 -40 18 -40 40s17 40 40 40c22 0 40 -18 40 -40s-18 -40 -40 -40zM335 774c-22 0 -40 18 -40 40s18 40 40 40s40 -18 40 -40 s-18 -40 -40 -40z" glyph-name="Ydieresis" horiz-adv-x="524" unicode="Ÿ"/><glyph d="M-164 -173l-43 26l492 852l43 -26z" glyph-name="fraction" horiz-adv-x="121" unicode="⁄"/><glyph d="M329 -8c-119 0 -217 72 -242 252h-60v53h56c-1 12 -1 25 -1 38c0 18 0 30 2 52h-57v53h62c30 177 136 269 261 269c50 0 82 -7 109 -20c21 -10 26 -20 21 -35l-10 -28c-48 20 -72 26 -121 26c-89 0 -167 -66 -192 -212h227v-28c0 -16 -10 -25 -31 -25h-202 c-1 -14 -2 -29 -2 -44c0 -16 1 -34 2 -46h233v-28c0 -16 -10 -25 -31 -25h-196c22 -145 97 -196 177 -196c54 0 90 11 141 36l6 -25c4 -15 -2 -29 -19 -40c-32 -19 -65 -27 -133 -27z" glyph-name="Euro" horiz-adv-x="525" unicode="€"/><glyph d="M219 36l-162 214l162 214h69l-156 -211l156 -217h-69z" glyph-name="guilsinglleft" horiz-adv-x="349" unicode="‹"/><glyph d="M62 37l156 210l-156 218h69l162 -214l-162 -214h-69z" glyph-name="guilsinglright" horiz-adv-x="349" unicode="›"/><glyph d="M173 -192l3 137v37h-36l-110 -4v52l110 -4h36v496h-36l-110 -3v52l110 -4h36v37l-3 137h54l-3 -137v-37h36l111 4v-52l-111 3h-36v-496h36l111 4v-52l-111 4h-36v-37l3 -137h-54z" glyph-name="daggerdbl" horiz-adv-x="400" unicode="‡"/><glyph d="M125 204c-25 0 -46 20 -46 45s21 44 46 44s45 -19 45 -44s-20 -45 -45 -45z" glyph-name="periodcentered" horiz-adv-x="250" unicode="·"/><glyph d="M171 28c0 -48 -41 -109 -84 -145c-15 -12 -28 -10 -38 1l-14 15c35 29 64 67 73 103c-16 5 -28 21 -28 40c0 24 20 43 44 43c29 0 47 -22 47 -57z" glyph-name="quotesinglbase" horiz-adv-x="250" unicode="‚"/><glyph d="M171 28c0 -48 -41 -109 -84 -145c-15 -12 -28 -10 -38 1l-14 15c35 29 64 67 73 103c-16 5 -28 21 -28 40c0 24 20 43 44 43c29 0 47 -22 47 -57zM321 28c0 -48 -41 -109 -84 -145c-15 -12 -28 -10 -38 1l-14 15c35 29 64 67 73 103c-16 5 -28 21 -28 40 c0 24 20 43 44 43c29 0 47 -22 47 -57z" glyph-name="quotedblbase" horiz-adv-x="393" unicode="„"/><glyph d="M187 399c47 0 81 32 81 136c0 103 -32 126 -79 126c-46 0 -81 -33 -81 -134c0 -105 33 -128 79 -128zM182 354c-86 0 -131 53 -131 170c0 120 54 182 143 182c81 0 131 -55 131 -167c0 -122 -57 -185 -143 -185zM266 -12l-46 23l327 698l47 -23zM623 38 c47 0 81 32 81 136c0 103 -32 126 -78 126c-47 0 -82 -33 -82 -134c0 -105 33 -128 79 -128zM618 -7c-86 0 -131 53 -131 170c0 120 54 182 143 182c81 0 131 -55 131 -167c0 -122 -57 -185 -143 -185zM963 38c47 0 81 32 81 136c0 103 -31 126 -78 126 c-46 0 -82 -33 -82 -134c0 -105 33 -128 79 -128zM958 -7c-86 0 -131 53 -131 170c0 120 54 182 143 182c81 0 131 -55 131 -167c0 -122 -57 -185 -143 -185z" glyph-name="perthousand" horiz-adv-x="1152" unicode="‰"/><glyph d="M20 0l232 700h51c16 0 26 -9 32 -30l205 -670h-50c-17 0 -28 9 -33 28l-54 179h-248l-59 -182c-6 -18 -15 -25 -31 -25h-45zM283 615l-113 -350h218l-103 350h-2zM150 751l106 145h48c14 0 19 -5 26 -14l90 -131h-43c-15 0 -20 2 -31 17l-59 86h-5l-61 -89 c-7 -10 -13 -14 -26 -14h-45z" glyph-name="Acircumflex" horiz-adv-x="560" unicode="Â"/><glyph d="M108 0v700h334v-34c0 -19 -10 -25 -31 -25h-235v-255h241v-37c0 -16 -9 -22 -26 -22h-215v-269h268v-35c0 -17 -9 -23 -29 -23h-307zM140 751l106 145h48c14 0 19 -5 26 -14l90 -131h-43c-15 0 -20 2 -31 17l-59 86h-5l-61 -89c-7 -10 -13 -14 -26 -14h-45z" glyph-name="Ecircumflex" horiz-adv-x="475" unicode="Ê"/><glyph d="M20 0l232 700h51c16 0 26 -9 32 -30l205 -670h-50c-17 0 -28 9 -33 28l-54 179h-248l-59 -182c-6 -18 -15 -25 -31 -25h-45zM283 615l-113 -350h218l-103 350h-2zM249 751l102 145h70l-97 -128c-10 -14 -18 -17 -34 -17h-41z" glyph-name="Aacute" horiz-adv-x="560" unicode="Á"/><glyph d="M108 0v700h334v-34c0 -19 -10 -25 -31 -25h-235v-255h241v-37c0 -16 -9 -22 -26 -22h-215v-269h268v-35c0 -17 -9 -23 -29 -23h-307zM205 774c-23 0 -40 18 -40 40s17 40 40 40c22 0 40 -18 40 -40s-18 -40 -40 -40zM349 774c-22 0 -40 18 -40 40s18 40 40 40 s40 -18 40 -40s-18 -40 -40 -40z" glyph-name="Edieresis" horiz-adv-x="475" unicode="Ë"/><glyph d="M108 0v700h334v-34c0 -19 -10 -25 -31 -25h-235v-255h241v-37c0 -16 -9 -22 -26 -22h-215v-269h268v-35c0 -17 -9 -23 -29 -23h-307zM291 751c-15 0 -21 3 -32 17l-99 128h70l102 -145h-41z" glyph-name="Egrave" horiz-adv-x="475" unicode="È"/><glyph d="M129 0c-14 0 -21 7 -21 31v669h47c14 0 21 -7 21 -31v-669h-47zM89 751l102 145h70l-97 -128c-10 -14 -18 -17 -34 -17h-41z" glyph-name="Iacute" horiz-adv-x="284" unicode="Í"/><glyph d="M129 0c-14 0 -21 7 -21 31v669h47c14 0 21 -7 21 -31v-669h-47zM8 751l106 145h48c14 0 19 -5 26 -14l90 -131h-43c-15 0 -20 2 -31 17l-59 86h-5l-61 -89c-7 -10 -13 -14 -26 -14h-45z" glyph-name="Icircumflex" horiz-adv-x="284" unicode="Î"/><glyph d="M129 0c-14 0 -21 7 -21 31v669h47c14 0 21 -7 21 -31v-669h-47zM70 774c-23 0 -40 18 -40 40s17 40 40 40c22 0 40 -18 40 -40s-18 -40 -40 -40zM214 774c-22 0 -40 18 -40 40s18 40 40 40s40 -18 40 -40s-18 -40 -40 -40z" glyph-name="Idieresis" horiz-adv-x="284" unicode="Ï"/><glyph d="M129 0c-14 0 -21 7 -21 31v669h47c14 0 21 -7 21 -31v-669h-47zM149 751c-15 0 -21 3 -32 17l-99 128h70l102 -145h-41z" glyph-name="Igrave" horiz-adv-x="284" unicode="Ì"/><glyph d="M327 -9c-152 0 -276 111 -276 348c0 240 132 369 290 369c152 0 276 -111 276 -347c0 -241 -132 -370 -290 -370zM332 49c109 0 214 94 214 304c0 218 -104 298 -210 298c-108 0 -214 -96 -214 -304c0 -220 104 -298 210 -298zM287 751l102 145h70l-97 -128 c-10 -14 -18 -17 -34 -17h-41z" glyph-name="Oacute" horiz-adv-x="668" unicode="Ó"/><glyph d="M327 -9c-152 0 -276 111 -276 348c0 240 132 369 290 369c152 0 276 -111 276 -347c0 -241 -132 -370 -290 -370zM332 49c109 0 214 94 214 304c0 218 -104 298 -210 298c-108 0 -214 -96 -214 -304c0 -220 104 -298 210 -298zM201 751l106 145h48c14 0 19 -5 26 -14 l90 -131h-43c-15 0 -20 2 -31 17l-59 86h-5l-61 -89c-7 -10 -13 -14 -26 -14h-45z" glyph-name="Ocircumflex" horiz-adv-x="668" unicode="Ô"/><glyph d="M327 -9c-152 0 -276 111 -276 348c0 240 132 369 290 369c152 0 276 -111 276 -347c0 -241 -132 -370 -290 -370zM332 49c109 0 214 94 214 304c0 218 -104 298 -210 298c-108 0 -214 -96 -214 -304c0 -220 104 -298 210 -298zM342 751c-15 0 -21 3 -32 17l-99 128h70 l102 -145h-41z" glyph-name="Ograve" horiz-adv-x="668" unicode="Ò"/><glyph d="M318 -8c-142 0 -224 67 -224 253v455h48c13 0 20 -7 20 -31v-420c0 -149 62 -199 162 -199c93 0 157 59 157 200v450h46c13 0 20 -7 20 -31v-414c0 -171 -90 -263 -229 -263zM267 751l102 145h70l-97 -128c-10 -14 -18 -17 -34 -17h-41z" glyph-name="Uacute" horiz-adv-x="641" unicode="Ú"/><glyph d="M318 -8c-142 0 -224 67 -224 253v455h48c13 0 20 -7 20 -31v-420c0 -149 62 -199 162 -199c93 0 157 59 157 200v450h46c13 0 20 -7 20 -31v-414c0 -171 -90 -263 -229 -263zM184 751l106 145h48c14 0 19 -5 26 -14l90 -131h-43c-15 0 -20 2 -31 17l-59 86h-5l-61 -89 c-7 -10 -13 -14 -26 -14h-45z" glyph-name="Ucircumflex" horiz-adv-x="641" unicode="Û"/><glyph d="M318 -8c-142 0 -224 67 -224 253v455h48c13 0 20 -7 20 -31v-420c0 -149 62 -199 162 -199c93 0 157 59 157 200v450h46c13 0 20 -7 20 -31v-414c0 -171 -90 -263 -229 -263zM333 751c-15 0 -21 3 -32 17l-99 128h70l102 -145h-41z" glyph-name="Ugrave" horiz-adv-x="641" unicode="Ù"/><glyph d="M115 0c-18 0 -26 8 -26 32v470h41c18 0 24 -7 24 -33v-469h-39z" glyph-name="dotlessi" horiz-adv-x="243" unicode="ı"/><glyph d="M50 551l106 145h48c14 0 19 -5 26 -14l90 -131h-43c-15 0 -20 2 -31 17l-59 86h-5l-61 -89c-7 -10 -13 -14 -26 -14h-45z" glyph-name="circumflex" horiz-adv-x="372" unicode="ˆ"/><glyph d="M251 579c-39 0 -84 48 -116 48c-28 0 -53 -16 -71 -41l-13 38c21 36 51 54 88 54c46 0 86 -48 117 -48c27 0 53 16 70 41l13 -38c-21 -37 -50 -54 -88 -54z" glyph-name="tilde" horiz-adv-x="394" unicode="˜"/><glyph d="M74 585v48h245v-48h-245z" glyph-name="macron" horiz-adv-x="395" unicode="¯"/><glyph d="M237 551c-71 0 -128 58 -128 145h53c0 -60 37 -100 77 -100h7c41 0 78 42 78 100h49c0 -87 -61 -145 -128 -145h-8z" glyph-name="breve" horiz-adv-x="425" unicode="˘"/><glyph d="M123 593c-20 0 -37 16 -37 36s17 35 37 35s36 -15 36 -35s-16 -36 -36 -36z" glyph-name="dotaccent" horiz-adv-x="240" unicode="˙"/><glyph d="M214 549c-44 0 -82 37 -82 82s38 80 82 80c45 0 81 -35 81 -80s-36 -82 -81 -82zM214 586c23 0 41 19 41 45c0 24 -18 43 -41 43c-25 0 -42 -19 -42 -43c0 -26 17 -45 42 -45z" glyph-name="ring" horiz-adv-x="417" unicode="˚"/><glyph d="M121 -192c-13 0 -18 7 -18 17v29h47c55 0 89 19 89 43c0 19 -17 30 -58 33l-24 2c-8 1 -12 6 -12 13v27l55 -2c61 -3 93 -29 93 -67c0 -51 -55 -95 -147 -95h-25z" glyph-name="cedilla" horiz-adv-x="393" unicode="¸"/><glyph d="M88 551l110 145h63l-108 -132c-6 -8 -14 -13 -28 -13h-37zM237 551l110 145h63l-108 -132c-7 -9 -14 -13 -27 -13h-38z" glyph-name="hungarumlaut" horiz-adv-x="465" unicode="˝"/><glyph d="M162 -192c-67 0 -107 33 -107 79c0 39 28 82 80 113h68c-61 -37 -90 -74 -90 -103c0 -28 22 -44 56 -44c23 0 45 4 66 11l3 -27c1 -9 -4 -16 -13 -20c-15 -7 -33 -9 -63 -9z" glyph-name="ogonek" horiz-adv-x="295" unicode="˛"/><glyph d="M149 551l-100 145h43c15 0 21 -3 31 -18l60 -85h6l59 89c7 10 13 14 25 14h47l-96 -132c-7 -9 -15 -13 -25 -13h-50z" glyph-name="caron" horiz-adv-x="360" unicode="ˇ"/><glyph d="M59 270v60h249v-60h-249z" glyph-name="uni00AD" horiz-adv-x="367" unicode="­"/></font>
</defs>
</svg>
